<?xml version="1.0" encoding="utf-8"?>
<!-- Generator: Adobe Illustrator 16.0.0, SVG Export Plug-In . SVG Version: 6.00 Build 0)  -->
<!DOCTYPE svg PUBLIC "-//W3C//DTD SVG 1.1//EN" "http://www.w3.org/Graphics/SVG/1.1/DTD/svg11.dtd">
<svg version="1.1" id="Layer_1" xmlns="http://www.w3.org/2000/svg" xmlns:xlink="http://www.w3.org/1999/xlink" x="0px" y="0px"
	 width="233.7px" height="236.972px" viewBox="0 0 233.7 236.972" enable-background="new 0 0 233.7 236.972" xml:space="preserve">
<g opacity="0.2">
	<g>
		<path fill="#A3462A" d="M213.486,0.41c-20.155,7.281-37.589,21.385-54.502,28.706c-51.121,22.055-98.602-1.89-147.353,5.892
			c6.082,19.124,22.715,25.275,34.729,31.837C30.546,72.565,2.16,82.658,0,100.152c24.465,9.822,52.16,3.23,79.837-3.172
			c-17.494,16.414-59.572,37.898-68.604,58.223c-1.811,4.221-4.131,12.354-1.751,16.424c4.411,7.213,13.563,3.682,20.885,2.181
			C16.683,193.883-0.291,213.326,1.96,236.621c4.391,0.461,9.042,0.501,14.043-0.08c21.415-2.351,46.65-13.923,64.694-32.807
			c3.291,5.262-1.16,13.333,6.371,21.114c32.197-17.054,44.8-42.429,54.402-65.734c5.46,24.836-4.471,46.5,13.532,73.847
			c62.063-60.573,5.472-145.092,76.897-203.785c0.54-7.521,1.16-15.082,1.8-22.614C228.06,4.531,222.488,2.251,216.906,0
			C215.776,0.12,214.616,0.35,213.486,0.41z M163.495,57.473C129.048,98.102,93.15,138.4,62.163,179.679
			c50.852-37.438,69.235-81.457,110.654-120.816c-2,16.825-8.992,37.059-4.361,56.973c10.643-23.165-4.78-55.312,21.395-75.927
			c11.453-9.001,26.896-15.483,40.068-19.813c-73.175,57.332-27.495,141.34-73.296,202.514
			c-10.802-38.878-3.36-74.116-4.561-111.094c-10.522,36.868-26.325,75.236-61.823,105.322c-2.771-11.572,1.95-21.595-5.831-34.167
			c-8.582,26.286-51.892,46.75-76.387,46.53c6.081-29.407,36.408-53.932,53.422-81.099c-15.313,11.953-33.728,24.496-46.871,18.435
			c11.553-37.438,78.188-56.322,108.664-88.249C93.649,91.211,63.533,95.711,36.897,95.901c-8.822,0.09-18.584,0.84-26.346-2.761
			C29.427,76.816,49.19,75.606,67.414,70.586C52.861,60.363,34.777,54.532,22.575,41.229c45.76-0.17,93.16,13.722,144.821-8.343
			c19.294-8.331,49.28-34.167,62.133-21.024c-13.373,2.591-25.815,9.532-38.888,19.095c-8.133,5.971-14.284,14.533-21.105,19.074
			c-6.541,4.36-16.674,6.262-24.615,8.791c-25.485,7.872-48.421,9.183-70.875,9.032C101.682,75.126,131.708,70.676,163.495,57.473z"
			/>
	</g>
</g>
</svg>
