<?xml version="1.0" encoding="utf-8"?>
<!-- Generator: Adobe Illustrator 16.0.0, SVG Export Plug-In . SVG Version: 6.00 Build 0)  -->
<!DOCTYPE svg PUBLIC "-//W3C//DTD SVG 1.1//EN" "http://www.w3.org/Graphics/SVG/1.1/DTD/svg11.dtd">
<svg version="1.1" id="Layer_1" xmlns="http://www.w3.org/2000/svg" xmlns:xlink="http://www.w3.org/1999/xlink" x="0px" y="0px"
	 width="538.886px" height="503.151px" viewBox="0 0 538.886 503.151" enable-background="new 0 0 538.886 503.151"
	 xml:space="preserve">
<g>
	<g>
		<path d="M494.053,232.498c2.183-1.942,5.442-3.978,4.222-7.047c-0.715-1.702-3.814-2.886-5.559-3.298
			c-8.484-1.958-25.085,6.171-34.332,7.792c8.509-7.155,17.075-14.283,19.743-24.243c-5.983-3.427-15.802,3.085-21.318,6.689
			c0.769-5.291,2.749-11.951-1.805-18.352c-13.88,13.438-17.538,33.916-36.437,44.744c-6.329,3.611-14.964,5.757-22.015,10.452
			c3.872-11.468-10.499-32.619-14.302-47.822c-1.865-7.247,2.355-14.575,10.221-11.516c-5.128,4.944-2.17,20.985,5.987,21.849
			c2.465,0.296,5.174-0.717,7.554-0.922c2.551-0.229,4.986-0.267,7.82-1.025c0.619-6.117,9.188-7.884,7.226-14.238
			c-1.419-4.576-5.92-4.488-6.562-10.26c-4.823-3.979-13.546,2.652-20.421,2.569c-3.82-0.055-7.157-2.619-10.808-0.851
			c-2.955,1.448-2.735,5.07-4.756,6.365c-5.07-8.655,0.316-14.216,5.649-18.65c4.348,3.335,8.78,6.233,16.07,2.484
			c9.172-4.75,8.56-21.111-1.259-25.838c-5.423-2.666-11.789-0.011-17.342,4.677c-0.687,4.635-2.505,8.735-0.676,14.547
			c-6.596,2.982-7.027,8.878-7.997,14.531c-11.014-17.287-20.469-45.344-7.003-56.85c2.96,2.767,9.584,5.917,13.67,4.804
			c3.659-0.945,6.813-4.984,7.696-7.984c2.993-9.812-6.396-22.33-16.036-18.855c-5.259,1.912-6.787,6.689-8.689,10.097
			c-1.457,2.515-1.105,5.404,0.595,9.132c-8.635,6.362-9.729,16.367-10.121,26.676c-7.127-16.851-22.553-26.29-29.635-43.272
			c-3.167-7.53-3.552-15.044-0.025-18.965c2.051,6.037,10.228,9.049,14.936,6.673c3.443-1.697,4.086-7.433,3.012-11.291
			c-1.054-3.764-4-8.177-7.676-10.125c-1.314-0.705-5.392-2.138-7.434-1.165c-1.621,0.762-2.998,4.28-4.236,6.167
			c-4.467,6.895-6.773,13.563-5.146,22.577c-7.269-7.602-13.602-23.14-14.5-35.125c9.9,5.925,28.391-3.599,21.445-17.017
			c-2.579-4.965-7.681-5.596-10.576-10.851c-7.053,2.487-17.371,5.823-17.031,11.297c0.091,1.328,1.104,2.669,1.382,3.887
			c1.673,7.024-1.506,14.015,0.036,20.735c-6.508-11.226-16.265-21.85-18.725-37.188c1.451,0.118,2.763,0.537,3.758,1.579
			c0.901,1.003-1.053,2.487,0.233,2.271c7.854-0.936,14.751-5.67,18.713-9.856c-0.074-5.438-2.494-11.982-1.978-17.124
			c-2.076-2.438-5.752-1.513-8.822-1.831c-0.723-2.57-1.784-4.438-3.338-5.256c-3.018,0.84-4.543,2.588-6.814,3.008
			c-1.413,0.263-2.652-0.468-4.098-0.012c-8.472,2.615-4.893,13.427-3.491,22.279c1.739,10.966,5.155,25.294,11.232,32.549
			c-3.526-0.229-8.466,0.785-11.087,3.326c-5.958,5.865-1.498,18.854,5.975,23.598c0.318,0.238,0.676,0.402,0.981,0.589
			c2.394,1.236,5.059,1.602,7.725,0.71c4.507-1.546,6.399-5.676,9.044-9.055c6.849,10.529,14.119,20.192,21.893,28.778
			c-4.82-1.221-10.291-3.475-16.302-0.666c3.887,3.403,8.019,6.418,13.059,8.816c4.526,2.15,10.667,4.21,13.811,7.677
			c2.09,2.281,3.485,5.282,5.385,7.717c5.801,7.459,11.671,13.6,17.054,21.714c-7.94-3.413-14.733-9.224-24.979-7.797
			c8.091,11.708,19.916,15.53,31.397,20.141c2.332,5.368,6.029,7.839,8.426,13.08c-14.096,5.729-15.182,17.647-16.791,29.32
			c5.15-7.331,13.108-13.308,22.658-18.547c11.099,15.95,23.01,45.326,16.744,61.28c-29.25-27.463-62.402-49.227-93.24-71.837
			c9.447,1.418,25.621-2.174,34.653-9.37c-11.165-2.959-25.401,0.481-38.384,1.335c0.604-7.046,5.432-17.359,3.069-26.805
			c-1.896-7.502-6.568-14.808-12.91-14.124c4.988,13.237,1.312,23.482-1.391,32.346c-4.456-14.358-17.11-21.938-21.484-35.052
			c-1.359-4.14-1.407-7.975,0.146-11.155c16.395,2.703,24.303-17.562,12.876-25.208c-0.322-0.246-0.688-0.438-1.055-0.654
			c-0.422-0.231-0.9-0.454-1.35-0.627c-10.838-4.644-25.632,7.078-19.582,18.916c1.334,2.642,3.162,3.595,5.329,5.986
			c-0.872,2.324-1.005,4.991-1.777,7.364c-8.164-12.748-18.57-20.799-27.923-31.007c10.386,2.41,21.267-5.792,21.331-13.996
			c0.229-22.689-38.667-15.125-31.36,4.698c1.203,3.268,3.199,3.933,4.68,7.399c-5.277-5.48-18.099-8.053-16.571-19.543
			c11.799,0.318,20.668-10.113,14.935-20.503c-3.386-6.099-12.041-7.598-19.495-3.89c-5.952,2.978-10.009,9.969-5.505,18.313
			c1.573,2.891,4.936,3.313,6.504,6.746c0.872,1.935-0.186,3.716,1.432,6.5c-5.179-2.251-10.337-4.562-14.888-8.158
			c4.19-9.668-4.717-20.578-12-22.346c-10.854-2.619-23.361,8.287-20.696,19.912c3.008,13.34,17.509,14.113,29.413,7.989
			c26.714,10.2,49.387,28.845,69.204,53.477c-9.552-2.401-17.398-8.437-29.286-5.995c0.094,0.12,0.19,0.23,0.266,0.357
			c8.081,10.856,21.994,9.402,33.938,12.073c7.773,9.17,13.361,22.976,20.24,34.029c-10.751-4.373-21.563-8.78-32.056-13.767
			c-10.25-4.884-22.364-8.039-29.535-19.028c2.012-3.791,4.65-7.223,4.902-11.299c0.064-0.564,0.025-1.198-0.073-1.762
			c-0.137-1.334-0.553-2.782-1.314-4.261c-6.693-13.233-33.227-4.316-22.174,11.659c0.983,1.38,3.003,2.275,3.807,3.312
			c-8.099-3.509-17.59-6.626-23.091-14.026c8.874-3.438,13.118-9.457,10.5-16.579c-3.789-10.232-21.328-9.429-25.25,0.49
			c-1.22,3.046-0.412,9.001,3.183,12.313c3.182,2.907,8.782,0.572,10.509,7.388c-12.169-8.253-30.982-4.999-39.396-19.66
			c2.731-0.24,5.895-0.661,8.579-2.162c11.369-6.255,3.722-28.533-10.472-28.729c-6.073-0.074-12.289,3.776-14.234,7.676
			c-1.174,2.438-2.997,9.395-0.057,14.65c1.662,3.055,6.601,5.057,9.543,7.121c3.436,2.432,6.294,4.989,8.625,9.508
			c-8.844-2.562-17.864-4.762-26.292-8.205c0.244-1.797,0.773-3.348,0.594-4.893c-1.524-15.776-22.826-15.269-29.766-4.055
			c-8.978-3.202-19.51-3.116-25.506-12.575c3.481,1.964,8.433,2.883,13.082-0.26c8.35-5.669,11.614-29.286-2.693-31.467
			c-11.279-1.74-22.404,8.913-20.105,19.104c2.565,11.204,9.114,14.974,14.714,22.538C51.44,96.75,38.389,94.287,30.568,84.735
			c6.5-1.874,11.5-9.72,11.5-13.713c-0.043-2.429-1.43-5.445-2.046-6.591c-7.16-14.214-35.964-8.333-29.594,9.623
			c2.63,7.438,7.865,7.243,12.734,10.387c3.918,2.551,5.582,6.292,8.732,10.638C15.861,93.784,4.362,107.811,0,117.19
			c15.254,3.051,27.363-12.119,37.618-19.166c9.352,5.236,21.651,4.34,33.433,4.494c-16.397,2.512-27.712,12.362-20.015,28.417
			c10.337,10.185,37.052-2.115,27.779-18.89c-1.454-2.646-3.883-2.997-5.43-6.266c3.903-1.079,7.679-1.952,10.182-0.099
			c1.595,14.825,18.283,18.016,28.121,8.441c5.482,2.532,13.448,2.31,17.623,6.021c-13.396-1.964-23.454,7.739-31.057,15.396
			c-3.849,3.849-8.634,6.86-11.732,10.591c-0.851,1.027-2.301,3.156-1.583,3.768c22.942-2.327,41.865-17.222,60.465-26.396
			c11.313,2.9,24.097,5.429,33.071,11.656c-15.683,1.511-33.005,10.767-38.725,21.028c16.658,0.678,33.285-11.758,44.913-20.004
			c12.438,7.56,27.12,10.398,38.958,19.201c-15.166,12.692-18.595,31.041-23.94,48.417c-0.764,2.52-1.553,4.939-2.446,7.387
			c14.946-10.693,22.914-25.892,30.794-39.25c4.798,18.313,14.329,30.569,24.265,39.614c-3.663-16.771-10.761-39.43-19.978-52.23
			c53.906,21.292,101.386,58.532,146.834,96.082c-30.231-10.323-60.334-21.327-94.645-26.338
			c-24.739-3.604-50.922-4.898-77.292-6.199c-11.248-0.565-23.959,0.976-30.273-7.101c6.373-1.134,9.843-4.266,11.243-8.141
			c3.467-9.744-6.461-24.145-17.031-22.247c-11.367,2.025-15.832,12.818-11.968,21.479c4.008,8.997,13.85,6.533,18.025,13.78
			c-17.812-6.125-44.172,5.756-57.001-10.768c12.077,3.702,26.169-6.451,21.787-18.541c-5.95-16.5-39.896-6.022-30.366,11.637
			c1.901,2.198,5.242,1.45,6.445,4.156c0.756,1.724-0.412,4.181,0.564,6.522c0.88,2.061,2.604,2.128,3.392,4.631
			c-13.335,1.266-26.471,8.302-33.565,16.587c-2.369,2.778-4.592,7.501-3.871,11.297c1.904,10.658,15.489,14.912,23.311,13.064
			c5.616-1.363,8.327-4.019,9.61-7.506c3.71-9.885-5.638-20.456-12.73-23.542c19.116-6.569,34.715-5.808,49.751-3.891
			c-7.103,1.5-12.507,5.496-13.822,10.449c-11.69-0.679-20.99,10.71-15.081,21.702c5.18,9.719,19.369,9.452,31.409,3.764
			c4.167-8.725-3.47-25.495-12.599-26.503c8.772-10.545,24.979-8.36,35.566-7.622c12.035,0.835,23.923,2.359,35.083,3.334
			c-13.738,7.409-20.32,18.802-25.209,30.26c-1.656,3.844-3.568,7.791-3.968,11.932c16.615-9.496,24.057-24.486,34.865-36.027
			c0.231,11.893,4.513,30.885,12.626,41.389c3.825-12.452,0.38-33.576-9.345-47.814c27.174,2.112,56.007,3.184,80.145,10.169
			c-16.328,4.619-27.591,14.453-35.252,24.169c-2.395,2.996-7.968,6.399-5.443,10.987c18.833-9.347,41.562-18.726,48.892-34.271
			c20.916,6.219,43.281,11.727,63.254,19.364c2.844,1.085,6.025,1.712,8.361,3.761c-12.936,6.229-26.275,6.095-38.636,11.353
			c-9.604,4.087-17.151,11.1-23.631,17.432c-5.052,4.938-9.16,9.872-11.973,15.638c-0.89,1.78-2.613,3.767-1.983,5.969
			c22.505-13.733,49.751-25.191,70.667-39.652c-8.035,13.552-7.827,31.055-5.515,49.577c11.464-15.902,21.105-32.664,18.038-55.483
			c19.945,16.988,39.73,34.321,55.995,59.03c-5.183-2.526-10.01-8.168-17.771-3.923c-0.698,1.95-0.312,5.371,1.29,7.726
			c-8.329-2.893-17.182-12.362-28.026-4.105c4.604,13.734,15.995,13.194,22.629,22.677c-18.139,1.449-32.818-13.152-52.983-6.065
			c-2.423,0.861-5.257,1.967-6.547,3.787c1.043,3.517,4.131,2.771,5.501,5.651c-9.066,0.379-21.704,4.575-28.812,10.193
			c10.546,12.594,27.438,11.858,43.283,13.313c-3.843,4.381-10.369,7.567-8.526,14.695c15.28,0.083,37.503-14.397,50.764-10.107
			c-7.356,3.438-10.887,10.78-19.148,14.387c-8.813,3.854-19.629,5.493-20.204,13.901c6.364,5.342,14.449,7.089,23.636,6.516
			c-1.05,4.175-4.5,7.192-1.763,13.172c15.311-1.851,22.234-11.225,28.817-20.141c4.599-6.251,8.892-14.307,16.457-17.798
			c14.354-6.656,24.781,1.183,35.717,4.272c24.911,40.063,44.994,92.069,65.502,142.753c12.278,30.374,22.965,62.804,25.834,90.871
			c1.119-1.379,2.282-2.738,3.359-4.152c-0.337-2.432-0.659-4.88-1.057-7.295c-5.335-33.771-21.576-72.445-34.892-105.069
			c-14.02-34.354-28.868-68.384-44.615-97.843c-24.06-45.097-49.759-87.61-80.394-118.782
			c-10.33-10.504-21.417-19.966-31.491-31.193c0.188-0.136,0.289-0.016,0.343,0.16c47.097,37.794,84.796,94.418,118.536,160.467
			c16.772,32.92,33.47,69.322,46.934,106.063c11.754,32.088,22.508,63.666,27.234,92.687c0.687-0.876,1.339-1.772,2.018-2.647
			c-2.245-13.084-4.901-26.364-9.779-40.728c-1.684-3.237-2.798-6.649-3.675-10.21c-0.04-0.139-0.002-0.232-0.021-0.361
			c-45.767-130.687-102.297-241.211-178.146-307.248c38.628-13.157,51.383,27.999,86.325,22.586
			c-4.336-12.055-13.449-14.036-19.939-21.567c9.547,2.455,20.45,4.477,33.342-1.6c-0.668-4.184-4.232-4.694-5.114-6.946
			c10.147-1.22,19.699-6.403,25.461-12.547c1.355-1.434,2.435-2.908,3.326-4.379C513.61,232.186,503.542,232.928,494.053,232.498z
			 M404.957,187.233c0.358,1.662-2.466,1.843-1.94,3.607c-1.711-0.312-2.956-1.625-5.4-0.422
			C398.9,188.561,402.135,188.609,404.957,187.233z M399.223,192.468c2.096-0.929,2.892,0.894,4.459,1.062
			c2.27-1.97,2.645-6.595,7.203-6.056c1.139,5.138,9.664,5.811,7.986,12.639c-1.06,0.135-2.2,0.401-3.465,0.947
			c-0.619,0.598-0.77,1.498-0.195,2.7c-0.898,0.216-1.633,0.093-2.712,0.662c-0.819,0.686-0.456,1.966-0.364,3.061
			c-2.07,0.735-4.147,1.465-6.215,2.205c-1.238-1.378-2.084-3.508-3.415-4.641c-2.001,1.343-0.429,4.389-3.032,5.465
			c-1.234-2.838-3.667-3.185-4.651-6.53c5.049-1.699,8.976-1.064,12.464,0.542c4.846-2.702,9.113-7.566,4.635-13.329
			c-1.859,1.484,0.484,4.975-0.144,7.056c-3.041-0.369-3.499,2.86-5.124,4.453c-0.229-1.02-0.771-1.44-1.277-1.892
			c-2.274-0.8-5.862,1.137-8.25,0.596c-0.401-1.126-0.795-2.25-1.198-3.381C399.61,198.923,399.308,194.788,399.223,192.468z
			 M395.405,193.25c1.156-0.601,1.158,1.193,1.604,2.051c-3.369-0.144-3.431,3.072-2.691,5.643
			C391.343,198.815,393.843,195.173,395.405,193.25z M401.866,171.075c-2.238-1.245,0.018-3.798,1.214-4.805
			C403.893,167.589,400.924,168.984,401.866,171.075z M390.951,155.084c1.677-0.535,2.61,0.539,3.994,0.631
			c1.263-1.85,3.3-0.345,4.884-0.255c1.371,2.279,1.727,4.578,2.75,6.898c0.418-0.875,0.259-1.981,0.378-3.046
			c1.955,0.857,0.132,3.249,1.224,5.118c-0.785,0.405-0.962-0.39-1.413-0.686c-0.236,1.397-1.276,1.044-2.494,1.184
			c-0.472,0.456,0.78,1.085,0.726,2.067c-1.222,0.786-2.406,1.6-2.812,2.768c-0.067,1.183,1.152-0.313,1.3,0.413
			c-0.932,2.57-4.237,0.086-6.543,1.151c2.387-2.889-1.612-6.885-4.939-5.54C387.229,161.371,389.316,158.347,390.951,155.084z
			 M387.21,156.117c-0.091,3.438-5.887,14.315,3.716,12.131c0.52,1.863-0.99,1.865-0.545,3.405c0.729,2.46,3.564,2.239,6.378,1.532
			C388.742,183.233,376.771,160.582,387.21,156.117z M382.031,172.853c0.648,1.667-3.183,3.083-4.171,4.685
			C378.255,175.524,380.242,174.218,382.031,172.853z M368.177,112.313c1.839-0.84,2.018,1.827,3.692,1.326
			c1.548-0.829-0.897-3.331-0.771-3.818c2.242-2.019,4.579,1.684,6.593-1.157c1.834,1.982,1.181,5.279,2.134,6.832
			c1.709-0.69,1.88-2.127,1.227-3.929c2.375,0.653,2.835,3.712,3.785,6.541c-0.324-0.087-0.557-0.339-0.8-0.6
			c-0.684,2.043-2.191,3.702-1.183,6.558c-0.933,3.094-4.852,4.158-5.916-0.243c-1.729,0.908-1.341,4.614,1.28,3.645
			c-0.124,0.856-1.607,1.097-1.62,2.034c-1.76-2.498-1.858-6.073-2.16-8.593c-2.56-0.359-2.445,2.436-1.305,4.564
			c-1.173-1.01-4.189-0.132-4.767,1.388C364.337,121.668,367.881,116.859,368.177,112.313z M356.914,143.181
			c0.94,2.94-0.311,8.496,1.129,13.06C355.212,151.576,356.405,146.985,356.914,143.181z M301.047,49.033
			c0.29-2.767,4.979-2.147,7.069-3.952c1.501,2.729,3.744,7.146,4.641,10.625c0.311,1.157-0.425,2.485,0.75,2.956
			c1.84-0.855,1.112-2.941,1.652-4.39c-3.209-1.24-2.242-6.91-4.796-9.414c0.112-0.919,1.132-0.002,1.814-0.633
			c0.653-0.686-0.602-1.039-0.634-1.833c3.023-0.142,3.408,5.235,6.958,3.964c1.18,4.848,6.624,8.418,3.809,12.39
			c0.536-3.019-3.719-2.372-4.382-5.742c-1.048,0.076-0.502,0.91-1.368,1.053c0.102,2.644,3.17,2.634,3.823,4.208
			c0.677,1.645-0.593,2.98-0.865,4.979c-1.989,0.701-3.348,0.02-4.342,0.953c-0.703-1.411-0.159-2.237-0.32-3.404
			c-2.405-0.027-1.826,3.134-0.676,5.513c-2.398-2.365-4.211-5.963-7.534-6.393c0.53-0.659,1.777-1.021,2.326-1.686
			c-1.002-3.255-3.272-3.727-6.401-2.417C302.73,53.899,304.377,49.382,301.047,49.033z M300.69,57.934
			c1.544,0.529,4.297-1.473,5.83-0.902c-0.372,1.213-1.78,1.911-3.186,2.595c1.749,3.139,5.107,2.874,7.5,4.637
			C307.077,68.419,301.604,62.671,300.69,57.934z M280.283,15.212c0.33-2.504,4.121-3.364,6.795-4.762
			c1.471,0.995,1.88,4.201,2.833,6.312c2.732-1.886,5.71-1.443,7.898-0.746c-0.938,4.231,1.409,10.012,2.125,15.014
			c-2.149,2.219-5.159,4.017-8.867,5.507c-0.306-0.948,0.482-1.355,1.423-1.696c-1.46-1.152-4.811-0.253-6.51,0.548
			c0.318,1.437,1.692,0.664,2.132,1.873c-2.461-0.861-4.673-2.284-7.361-2.643c0.25-3.547,5.675-9.907-2.08-8.324
			c0.268-2.3,0.567-10.055-4.253-7.828C274.194,16.291,278.159,12.361,280.283,15.212z M274.804,20.364
			c4.061,0.408,0.986,4.818,1.802,7.544c0.889,0.857,2.605,0.05,3.832,0.102c0.516,2.55-2.425,3.338-1.675,5.998
			C274.944,31.715,273.509,23.952,274.804,20.364z M257.024,98.834c1.455,0.309,1.503,3.508,2.394,5.011
			c1.2-1.361,0.919-3.465-0.048-5.855c7-0.046,13.513,0.882,15.974,10.423c-1.791-0.769-2.947-2.854-3.94-5.331
			c-0.122,2.099,1.759,3.87,2.212,6.238c0.014,1.149-1.066,1.795,0.064,3.472c-1.511-1.256-6.23-1.634-6.159,1.607
			c-1.897-0.981-2.1-5.542-4.039-6.463c-1.671,0.641-3.633,1.148-3.071,2.852c-2.425-1.733-2.468-8.433-5.827-8.157
			C254.64,101.007,255.868,99.914,257.024,98.834z M253.419,105.093c0.291-0.162,0.493-0.123,0.599,0.071
			c3.316-0.14,3.054,7.198,5.66,8.505c2.3-0.087,2.442-2.176,3.267-2.315c0.655,6.091,5.003,7.227,7.556,3.161
			C265.376,125.382,247.373,114.969,253.419,105.093z M257.527,120.855c0.375,0.018,0.667,0.153,0.808,0.614
			c-1.935,1.932-1.233,5.157-1.588,7.854C254.867,127.152,256.114,122.819,257.527,120.855z M4.843,115.183
			c4.273-6.878,8.87-13.622,20.228-17.118c-4.631,3.549-10.267,6.608-15.141,10.056c7.727-0.597,11.937-7.691,19.601-9.002
			C25.657,106.58,16.081,111.883,4.843,115.183z M76.39,117.58c-2.382,1.227-0.191,6.283-1.219,8.907
			c-1.355,0.715-1.664-0.733-2.308-1.542c-1.233,2.54-3.063,6.027-7.275,5.815c-0.523-1.469-1.039-2.951-1.569-4.432
			c-2.853,0.752-1.91,3.273-2.605,5.025c-1.506-0.004-2.688-0.695-4.114-0.882c-0.247-2.631,0.318-4.878,0.651-7.231
			c-0.804-0.889-2.737,0.633-4.081,0.847c-1.892-3.024-1.519-6.33-1.478-9.11c1.954-0.805,4.686-1.216,5.188-2.722
			c-0.291-0.764-0.566-1.548-0.839-2.318c1.054-0.333,4.326-0.421,3.957-2.005c1.177-0.015,1.192,2.363,1.809,3.456
			c2.858-0.222,0.812-2.779,1.845-3.857c2.004-0.564,2.147,2.73,3.725,3.064c1.233-0.109,2.569-0.582,3.292-1.469
			c1.915,1.854-1.267,4.736,1.324,6.255c1.508-0.436,1.037-1.821,2.75-2.155C76.601,114.293,76.512,116.401,76.39,117.58z
			 M164.297,141.347c-3.733,3.024-9.785,4.972-13.174,8.172C152.813,146.496,158.38,142.373,164.297,141.347z M151.085,151.877
			c5.529-4.686,12.897-8.518,21.9-11.56C167.675,145.114,160.079,148.833,151.085,151.877z M119.398,204.307
			c-2.757-0.137-3.658-4.305-2.892-6.582C118.469,198.742,118.125,201.766,119.398,204.307z M130.862,206.962
			c0.2-0.715,0.215-1.501-0.304-2.522c5.541,1.493,4.727-5.624,7.899-6.605C138.039,201.887,135.614,204.986,130.862,206.962z
			 M120.316,187.021c0.896,1.729,2.182,2.638,3.036,4.484c1.068-0.134,1.159-2.596,0.176-4.441c1.018,0.268,1.821,1.944,1.699,3.191
			c0.98-0.977,0.95-2.435,0.285-4.177c2.77,1.189,4.055,5.367,7.248,5.602c1.493-0.874,1.573-2.424,1.838-3.859
			c1.488,0.346,1.808,1.934,1.809,3.456c0.513,1.01,1.559,0.943,2.638,0.804c0.493,1.531-0.254,2.469,0.595,4.179
			c-1.171-0.286-0.68-2.163-1.549-3.554c-2.928,0.547-2.573,2.666-3.154,4.335c-0.615,0.271-0.948-0.098-1.477-0.068
			c-1.164,1.091,0.95,3.748,0.018,4.971c-0.35,0.135-0.692,0.249-1.037,0.379c-1.022-1.508-1.55-3.999-3.892-2.718
			c-1.363,1.5,1.889,5.206-0.744,6.108c-1.475-3.563-2.913-11.068-6.425-7.372c-0.325,0.707-0.486,1.48,0.058,2.613
			c-1.831-0.37-2.311-3.616-3.257-5.85c-0.313-0.094-1.251,0.424-1.829-0.25c-0.996,1.054-2.226,1.97-1.926,3.616
			C112.414,193.635,116.643,189.895,120.316,187.021z M141.209,260.851c-1.851,0.552-4.85-0.366-6.653-1.449
			c1.363-1.634,4.547-2.433,4.447-4.792C140.367,255.98,139.766,259.417,141.209,260.851z M154.355,255.877
			c-1.446,0.348-1.54,1.296-1.867,2.154c-3.337,0.06-3.749-6.026-5.409-9.489c-1.374,3.178,2.073,8.616,1.359,12.099
			c-2.216,1.014-3.762,0.63-5.237,0.082c-0.596-4.889-4.088-11.159-4.114-15.772c-2.554,1.433-1.501,6.48-1.82,9.716
			c-1.731,1.037-3.557,2.034-6.05,2.712c-1.121-2.177-3.019-2.731-3.767-5.667c2.499-1.617,4.162-3.619,4.492-6.272
			c-2.208,0.068-2.992,3.502-5.148,3.583c0.418-5.561,6.337-12.08,13.706-11.596c1.275,2.1-1.509,3.996-1.273,6.312
			c1.68-0.212,3.06-2.842,5.786-2.639C148.335,245.376,153.028,248.981,154.355,255.877z M154.909,248.401
			c-3.28-3.368-7.039-5.735-9.769-10.272C149.486,239.266,153.015,242.104,154.909,248.401z M314.615,306.612
			c-0.988-0.764,0.489-1.543,0.756-2.029c9.508-17.079,34.511-32.58,62.11-36.604c-14.198,8.183-27.379,16.858-40.979,25.327
			c17.475-6.046,27.647-17.448,44.477-24.518C363.377,283.561,337.39,294.312,314.615,306.612z M374.999,316.187
			c-3.021-18.561-1.056-34.736,10.441-46.36c-1.287,9.029-4.864,18.811-3.448,29.851c1.357-10.364,3.943-20.14,5.264-30.49
			C393.231,288.632,383.019,303.406,374.999,316.187z M483.208,381.749c0.289,0.522,0.602,0.988,0.866,1.475
			c1.519,2.509,2.914,4.932,4.351,7.289c-1.106,0.624-2.067-0.583-2.996-0.993c-7.055-2.992-18.354-5.894-28.355-2.509
			c-9.511,3.228-13.759,11.062-18.468,17.962c-5.952,8.673-11.89,17.79-25.85,20.256c-0.512-5.998,2.853-11.101,10.488-12.487
			c-11.635,0.419-23.395,1.136-32.212-4.348c3.779-6.662,11.711-7.33,19.818-10.833c11.528-4.968,17.626-19.119,31.078-15.4
			c-13.646-10.006-39.086-1.583-61.379,6.568c-0.585-1.114,0.482-2.589,1.223-3.95c2.145-3.827,5.906-8.358,11.033-10.93
			c-16.548-1.03-33.781-0.633-46.28-10.172c14.033-7.854,29.943-9.115,41.844-8.113c-4.91-4.057-14.959-1.227-18.726-9.138
			c28.001-4.417,47.655,8.616,73.512,8.707c-13.354-5.476-26.87-14.622-37.471-27.324c12.291-3.288,19.366,4.43,28.019,8.805
			c0.598,0.299,1.17,0.562,1.76,0.843c1.363,0.544,2.754,1.03,4.245,1.381c-2.686-2.172-7.643-7.422-7.761-13.62
			c15.111,0.451,25.044,15.273,34.357,29.308C472.199,363.443,477.969,372.858,483.208,381.749z M300.37,179.013
			c7.573-3.078,14.323-0.531,21.667-1.534c-9.319,6.854-21.036,5.108-29.791,5c6.14-4.271,11.881-0.263,18.431-2.447
			C308.626,178.574,304.159,178.307,300.37,179.013z M227.904,73.503c8.001-5.604,16.531,1.314,16.656,10.756
			c-2.919-2.269-4.113-8.227-7.653-9.261c-1.258,0.975,0.587,3.433-1.499,4.03c-0.949-1.023,0.276-2.686,0.014-4.087
			c-1.418-0.042-2.626-0.537-3.173-2.399c-2.793,1.476,0.217,5.712-1.354,7.794C230.515,79.075,231.354,73.075,227.904,73.503z
			 M226.105,75.027c4.328,0.506,1.619,5.517,1.283,7.717C225.634,80.402,225.824,77.131,226.105,75.027z M222.769,77.954
			c3.116,1.382,1.413,5.932,1.55,8.521c0.162,0.86,0.929,0.44,1.243,1.017c2.21-0.117,2.546-2.024,3.358-2.071
			c0.888,2.206-1.051,3.105,0.189,5.492c3.505,1.083,3.099-3.201,5.589-4.033c2.086,1.499,0.32,3.982-0.085,5.586
			c5.317,1.227,2.916-8.3-0.589-8.263c-1.431,0.307-2.126,1.005-2.923,1.626c-0.406-1.271,0.603-1.871-0.324-3.412
			c2.375-0.431,1.568-1.715,3.35-2.059c4.214-0.8,2.651,7.584,7.35,5.871c-1.007,10.244-17.797,9.967-21.817,2.779
			C219.757,84.875,220.558,81.071,222.769,77.954z M196.154,62.258c0.509,3.088,4.646,4.294,7.55,2.301
			c-0.521-2.398-2.867-0.929-4.455-1.043c-0.312-1.358,1.118-1.909,1.232-3.075c-0.387-0.981-1.966,0.51-2.62,0.049
			c-0.724-1.507,0.495-2.057-0.408-3.661c1.687-0.054,2.084,2.585,3.959,2.105c-0.032-1.485-2.423-3.131-2.357-5.001
			c1.708-0.555,2.508,0.752,3.846,0.97c0.861-0.302,0.682-1.113,0.834-1.752c1.286,0.172,1.113,3.405,2.596,3.169
			c1.679-0.733-0.009-2.328-0.428-3.659c1.6,0.616,3.302,0.928,4.751,1.844c0.358,1.028,0.723,2.073,1.094,3.105
			c1.623-0.516,1.061-2.082,1.16-3.331c2.29-0.275,2.564,3.673,4.111,4.963c-2.562-1.411-4.432,0.174-2.271,4.332
			c-1.084-1.967-2.955-4.077-4.917-1.477c1.517,1.558,2.128,5.032,2.814,6.308c-0.275,0.575-1.438,0.748-2.235,1.082
			c0.074-0.477,0.676-0.68,1.118-0.987c-1.079-1.076-1.718-3.039-3.7-2.193c-0.894,0.948,0.803,3.116,1.042,4.614
			c-1.122,0.393-2.26,0.787-3.381,1.196C203.911,66.245,195.332,68.854,196.154,62.258z M201.999,76.273
			c0.268-0.096,0.515-0.175,0.781-0.273c0.429,2.564,1.076,5.262,1.282,7.708C202.581,81.711,202.15,78.355,201.999,76.273z
			 M164.796,57.025c-0.296,2.581-3.237,3.922-1.441,7.516c3.164,0.207,3.56-2.767,3.937-4.61c-1.258,0.198-1.328,0.959-2.15,1.345
			c0.831-1.905,2.258-3.525,1.969-5.94c1.913-0.542,3.176,0.285,5.145-0.373c-0.444,1.655-0.401,3.55,0.629,5.925
			c-2.225-1.166-5.516-0.886-5.97,2.111c0.87,2.697,2.601,3.605,3.425,6.378c-2.478-0.537-3.283-4.593-7.179-2.139
			c-0.217,1.06,0.806,2.697,1.112,3.992c-1.562-1.4-3.898-1.143-6.202-1.021C157.959,64.704,159.333,59.874,164.796,57.025z
			 M171.15,79.894c-3.264,1.747-6.265-1.048-9.088-1.736c-0.715-2.008-1.413-3.997-2.111-5.989c2.262,0.513,3.852,3.913,6.894,1.345
			c0.109-1.333-0.844-2.954-1.468-4.126c2.549,0.066,3.913,2.634,6.158,3.359c2.685-2.212-0.929-7.315-2.361-9.973
			c2.469-0.337,3.661,1.972,5.959,1.978c1.658-1.505-1.073-5.123-1.535-7.641c4.996-1.581,7.521,2.021,9.938,5.832
			c-1.313,1.049-1.838-0.812-3.304-0.287c-3.597,1.278-0.126,5.841,1.056,9.564c-1.962-1.122-5.401-3.396-6.617,0.296
			c0.578,1.207,1.471,1.703,1.967,3.107c-1.392,0.874-4.167-3.022-7.752-0.468C167.65,76.76,169.947,79.244,171.15,79.894z
			 M178.38,79.679c-3.198,1.029-6.271-0.108-7.458-2.916c2.419-1.15,5.234,3.247,7.351,1.786c1.325-0.914,0.438-3.176-0.715-5.307
			c2.472-0.716,3.078,3.734,5.434,2.174c2.432-1.658-1.645-6.185-2.365-9.979C188.449,68.075,185.219,77.399,178.38,79.679z
			 M227.833,129.333c0.741-0.483,0.952,0.103,1.31,0.429c5.105-0.886,9.548,1.378,13.807,2.687
			c4.267,1.314,9.092,1.704,12.733,4.547C245.53,136.258,235.44,135.42,227.833,129.333z M245.097,121.173
			c-7.85-8.173-15.094-16.184-24.375-22.628c-6.146-4.248-11.985-9.033-17.933-12.633c-2.287-1.386-5.521-2.362-8.337-3.758
			c-3.182-1.564-6.229-2.703-8.792-4.182c0.202-0.135,0.163-0.354,0.428-0.454c11.235,3.716,20.222,9.789,30.451,16.676
			c4.42,2.971,9.145,6.057,13.245,9.31c4.223,3.435,7.791,8.159,11.988,12.429c6.3,6.383,11.876,12.093,17.024,20.833
			c-2.086-0.135-2.451-2.527-3.37-3.765C252.505,129.022,248.629,124.847,245.097,121.173z M203.186,134.854
			c-0.628-1.675-0.682-3.055-0.337-4.249c2.437-0.13,2.476,4.774,4.707,5.042c1.161-0.458,1.438-1.324,2.243-1.969
			c2.613,3.814,5.405-1.91,8.843-1.357C217.36,139.246,206.59,138.131,203.186,134.854z M219.639,147.451
			c-1.79-0.497-2.633-2.927-3.588-5.165C217.608,142.944,219.215,145.833,219.639,147.451z M214.193,140.315
			c-0.458,0.932,0.551,2.573,0.422,3.657c-3.225-1.118-6.045-3.028-9.324-4.008C207.475,139.92,211.119,140.738,214.193,140.315z
			 M206.247,120.354c5.064-1.066,9.201,2.956,11.688,6.65c-0.211,1.054-0.825,1.901-0.615,3.141
			c-1.778-0.289-3.278,2.082-4.241,2.09c-1.19,0.092-1.653-1.361-2.309-2.391c-1.824,0.109-2.05,1.788-2.943,1.616
			c-1.124-5.683-7.557-3.208-8.275-0.266C197.3,125.503,201.03,121.453,206.247,120.354z M168.698,106.773
			c1.948,2.473,4.431-0.545,4.658-2.521c2.276-1.024,3.391,0.397,5.478-0.198c0.117,2.938,2.749,4.037,4.962,4.086
			c0.923-0.813-0.612-2.515-1.611-2.066c-0.183-0.911,1.998,0.424,2.47,1.173c-1.315,2.765-6.735,3.553-7.985,6.339
			c1.5,2.2,3.462-0.644,4.317-1.825c1.91,0.305,2.121,2.137,1.647,3.815c-2.908,0.572-6.501-1.011-9.036,1.742
			c-1.617-1.983-3.186-6.149-6.25-3.649C166.625,110.819,167.711,108.81,168.698,106.773z M170.833,118.591
			c2.527,2.28,8.021-1.723,10.633,0.317c3.032-0.895,2.147-3.588,4.439-4.794C186.129,120.61,174.148,124.75,170.833,118.591z
			 M142.098,105.093c-2.837,2.317-5.088-0.472-6.338-3.007c2.083-0.741,1.226-2.861,1.321-4.558
			C139.155,99.229,139.978,103.507,142.098,105.093z M143.473,104.893c-0.483-2.796,1.67-4.243,1.367-6.897
			C146.025,100.199,146.278,103.842,143.473,104.893z M138.006,82.006c1.253,0.271,4.165,0.601,4.545,1.301
			c0.129,0.305-0.415,2.486-0.286,3.324c0.265,1.552,1.194,2.26,1.036,3.719c-2.081-0.099-4.685,0.937-6.921,2.756
			c-2.146-3.198-1.543-10.566-7.024-7.461C129.212,80.838,134.417,81.231,138.006,82.006z M126.633,84.576
			c0.509,3.182,2.904,3.79,4.934,2.336c1.19,3.378,2.253,7.039,4.416,8.372c3.031-1.064,5.54-2.531,8.58-3.048
			c1.219-1.052-0.122-3.359,1.045-4.445c2.833,0.438,4.292,5.686,4.605,8.876c-3.188,1.472-4.367-4.087-7.174-1.259
			c-0.883,0.914-0.417,1.957-0.445,3.671c-2.405,0.358-2.899-3.261-4.692-4.167c-3.159,0.418-2.391,2.724-3.834,3.971
			c-3.386-1.525-4.405-7.988-6.601-11.973c-0.928-0.292-2.344,0.631-2.762,1.266C124.425,87.383,125.058,85.18,126.633,84.576z
			 M126.904,89.454c1.94,2.991-2.438,2.982-2.256,5.176C122.731,92.534,124.618,89.567,126.904,89.454z M125.978,100.009
			c-0.719-1.614-0.192-6.424,2.513-5.276c1.168,5.381,4.25,6.77,6.294,10.326C133.405,104.62,126.869,101.966,125.978,100.009z
			 M72.035,71.493c-1.115,1.119-3.329-1.161-3.106-2.997c0.439-0.15,0.872-0.293,1.311-0.458
			C70.851,69.147,70.885,71.519,72.035,71.493z M66.39,62.979c1.104-0.778,2.826-1.243,2.906-2.497
			c2.992,3.174,10.104,10.192,4.722,14.109c0.673-2.768-0.584-10.7-5.462-8.009C68.255,64.508,66.718,64.995,66.39,62.979z
			 M63.711,59.551c-0.013,2.136-3.312,4.233-5.929,3.845C58.045,61.291,61.15,60.545,63.711,59.551z M64.3,62.834
			c1.125,4.524,5.782,9.438,2.671,12.492c-0.104-2.475-1.923-8.435-5.501-5.633C60.851,67.523,61.474,64.078,64.3,62.834z
			 M52.085,72.151c4.04-1.159,1.585-7.288,6.436-6.665c0.447,4.17-1.243,10.799,3.625,12.722c0.511-0.22,2.847-1.161,1.96-2.739
			c1.16,0.129,1.178,2.647,2.241,3.012c2.082-0.982,2.487-2.679,3.483-4.161c1.789,0.766,2.702,3.365,5.104,2.864
			C73.986,91.436,51.504,85.544,52.085,72.151z M37.64,66.741c0.688,2.909-2.694,3.529-0.923,7.331
			c-2.016,0.767-3.797,1.646-3.757,3.389c-2.381,0.446-2.711-3.367-4.604-3.921c-1.297,0.313-1.607,1.093-1.614,2.029
			c-1.782-0.777-1.983-4.9-3.602-6.032c-1.739,0.623-3.872,1.031-3.441,2.676c-1.631-0.632-1.813-4.32-3.298-5.246
			c-2.45-0.109-2.726,2.962-3.284,2.336C10.931,56.67,35.283,56.962,37.64,66.741z M14.967,70.393
			c0.177-0.051,0.35-0.133,0.511-0.182c2.38,0.115,1.712,3.959,3.092,6.227c2.537-0.679,3.681-2.007,2.877-4.247
			c2.451,0.152,2.596,5.104,4.389,6.625c1.771-0.245,1.772-1.31,2.499-2.058c1.244,1.324,2.139,3.33,4.227,2.869
			C25.204,85.853,12.947,79.672,14.967,70.393z M78.173,101.164c-12.323-2.501-27.932-0.223-39.283-5.34
			c-4.003-2.777-8.418-4.683-11.349-9.735c-0.24-0.39,0.122-0.51-0.006-0.866c0.399-0.239,0.517,0.109,0.862-0.018
			c12.64,17.53,37.087,10.264,55.023,16.722C81.696,102.842,79.838,101.496,78.173,101.164z M88.762,103.836
			c2.973,0.123,1.389,5.852,2.761,7.798c0.796,1.117,4.053,1.813,3.98-1.139c2.163,0.011,2.607,3.471,4.689,3.319
			c2.452-0.194,2.968-2.65,2.16-5.444c1.478,0.845,2.271,3.091,3.571,4.291c0.937-0.626,1.688-0.461,3.112-1.104
			C104.279,121.778,82.076,115.079,88.762,103.836z M106.303,110.476c-0.161-2.431-1.938-4.813-3.667-5.412
			c-3.6,0.873-0.886,4.735-3.364,6.15c-0.897-2.796-1.906-5.357-3.863-5.923c-1.495,0.857-1.693,2.334-1.129,4.202
			c-2.25-0.879-1.725-4.865-3.188-7.342c-0.626-0.669-1.471-0.849-2.71-0.215c-0.566-4.483,7.24-7.201,10.759-6.744
			c7.156-3.857,13.611,4.868,10.82,10.782C107.409,106.823,108.921,109.614,106.303,110.476z M137.484,123.384
			c-14.18,3.168-25.133,11.402-36.526,17.325c12.636-2.974,19.601-10.495,31.693-14.427c-10.3,7.57-24.022,15.31-39.691,19.026
			c6.763-11.808,27.953-26.621,44.691-22.27C138.096,123.026,137.729,123.301,137.484,123.384z M201.989,204.836
			c4.738-15.368,8.15-33.33,20.578-45.863c-4.047,7.422-8.309,16.617-10.861,25.467c5.718-7.908,8.017-18.62,13.971-25.692
			C227.457,178.708,213.062,190.965,201.989,204.836z M228.98,167.208c4.403,7.998,7.25,19.199,11.671,27.139
			C235.636,187.749,231.15,176.912,228.98,167.208z M248.394,203.863c-2.556-1.868-4.415-5.19-6.756-7.545
			c-2.351-11.714-8.717-23.737-12.635-36.434C238.705,168.536,242.321,188.484,248.394,203.863z M275.932,176.854
			c-6.025-2.29-11.808-5.386-17.664-8.628c-8.277-4.57-17.82-6.727-26.334-10.812c-4.165-2.045-7.932-4.799-12.069-6.848
			c-8.186-4.109-16.602-7.543-25.304-11.174c-4.152-1.758-7.996-4.721-12.219-6.486c-3.371-1.432-7.297-2.035-10.854-3.459
			c-3.459-1.351-7.056-2.845-10.453-3.895c-3.875-1.206-7.914-1.565-11.8-2.818c-11.061-3.586-22.903-7.176-34.606-10.23
			c-0.263,0.081-0.32-0.24-0.441-0.437c0.21-0.12,0.157-0.354,0.423-0.448c6.478,1.794,13.593,3.56,20.572,5.28
			c6.766,1.629,12.986,5.33,19.534,6.521c1.938,0.329,4.011-0.115,5.929,0.217c3.395,0.616,6.987,2.788,10.536,4.181
			c3.611,1.385,7.451,2.463,10.694,3.804c4.271,1.733,8.281,4.346,12.496,6.351c4.107,1.982,8.481,3.649,12.739,5.438
			c8.481,3.598,16.42,8.386,24.625,12.596c4.101,2.103,8.706,3.461,12.999,5.34c12.426,5.521,25.587,10.652,37.518,17.661
			C279.906,179.258,277.961,177.643,275.932,176.854z M267.88,151.668c-0.233-0.403,0.095-0.52-0.006-0.864
			c0.25-0.09,0.514-0.193,0.777-0.281c5.229,7.053,10.439,16.406,13.468,26.485C277.422,170.354,273.553,157.943,267.88,151.668z
			 M285.677,139.232c12.933,10.508,6.431,29.71,3.811,40.42c0.013,0.438-0.257,0.104-0.346-0.167
			c-0.648-7.693,1.127-14.272-0.695-22.547c-1.241,7.467-1.452,15.423-1.295,23.547
			C278.173,165.164,291.877,155.339,285.677,139.232z M293.47,187.589c7.672,2.934,15.292,9.875,22.933,14.384
			C308.582,199.324,301.15,192.034,293.47,187.589z M181.209,211.312c-0.463-2.149,0.434-4.825-0.909-6.691
			c2.344-0.142,2.272-2.798,4.183-3.812C185.339,205.226,185.11,209.16,181.209,211.312z M161.2,198.547
			c4.04,0.814,5.432,7.228,6.932,12.151C164.184,209.853,160.087,203.364,161.2,198.547z M169.349,210.85
			c1.507-2.518-1.002-6.942-0.617-10.011c2.49,1.116,2.446,7.552,4.859,8.795c1.325-3.532-3.027-9.086-3.458-13.096
			c-2.492,0.546-2.814,2.12-3.076,3.723c-1.812-0.863-2.994-3.072-4.195-5.242c0.766-1.277,2.231-2.241,2.812-3.601
			c1.655,3.441,5.247,2.845,8.928,2.079c0.475-4.028-4.364-0.783-6.123-1.625c1.071-7.097,14.662-0.668,15.735,3.176
			c0.914,3.28-3.605,3.584-3.362,7.049c-1.512-0.732-2.003-3.626-3.722-3.929c-3.028,1.501-4.277,5.935-2.626,8.23
			c2.004-1.056,1.259-3.428,2-5.107c2.9,2.287,2.353,7.115,3.753,10.646C175.768,213.395,171.646,214.02,169.349,210.85z
			 M121.408,213.235c1.387,2.816,5.176,2.942,6.193,5.106c-2.832-0.544-5.319-1.806-6.967-4.848
			C120.897,213.405,121.148,213.318,121.408,213.235z M111.581,250.613c-1.503,0.723-1.289-2.128-2.481-2.05
			c-1.419,1.771,0.038,4.902-2.493,6.155c-0.855-0.635-1.683-1.317-2.15-2.75c-0.522,0.189-1.036,0.367-1.545,0.55
			c-0.964,0.874,0.377,2.926-0.722,3.75c-1.233-0.826-2.868-2.868-2.892-4.806c-0.457-0.241-1.208,0.127-1.896,0.373
			c-0.945,0.773,0.1,2.508,0.51,3.916c-0.589-0.294-0.816-1.326-1.435-1.541c-0.835,0.24-0.622,0.992-1.625,1.164
			c-1.417-3.352-0.688-5.656-2.35-9.111c-1.644,0.303-1.484,1.45-2.838,1.886c-1.493-5.025-0.981-9.104,2.208-11.896
			c0.56,0.2,1.035,10.06,5.644,7.66c0.943-0.495,0.91-1.25,1.177-2.468c0.743,0.376,1.319,1.143,2.203,1.271
			c1.001-0.324,1.189-1.019,1.087-1.859c1.201,0.215,1.379,2.534,2.34,3.271c0.966-0.389,2.357-0.596,2.394-1.448
			c1.186,0.75,2.796,4.283,4.143,1.764C111.483,245.825,110.282,248.879,111.581,250.613z M115.658,244.792
			c-1.656,0.295-2.136-1.881-2.778-3.702c-0.85-0.32-2.717,0.734-3.384,1.206c-0.741-1.002-1.375-2.234-2.399-2.662
			c-0.855,0.165-1.143,0.597-1.717,0.892c-0.828-2.177-1.413-4.895-3.065-5.326c-1.377,0.62-1.819,1.706-1.152,3.319
			c-0.782-0.157-1.049-1.42-2.115-1.004c-2.033,0.925-1.57,2.99-3.238,4.077C91.95,225.084,116.132,232.821,115.658,244.792z
			 M190.35,265.934c4.626-13.477,10.597-26.298,25.634-34.802c-5.999,9.734-15.528,17.724-19.72,28.274
			c8.036-8.784,14.133-18.502,22.09-27.369C212.462,244.122,202.379,256.064,190.35,265.934z M232.573,269.666
			c-5.72-8.978-8.602-22.335-10.187-32.044c3.833,5.709,5.972,14.354,7.543,21.298c2.211-5.177-2.868-15.644-5.665-23.43
			C232.609,244.482,232.125,259.738,232.573,269.666z M267.585,269.53c-0.685-0.99,1.093-2.581,2.112-3.968
			c2.932-4.051,6.688-8.028,11.355-11.603c6.387-4.968,13.994-8.931,22.137-12.54c-2.615,4.154-11.578,7.136-13.783,12.187
			c6.443-3.554,12.669-9.056,19.608-13.086C302.706,253.762,285.038,261.577,267.585,269.53z M381.241,259.625
			c-8.635-3.471-17.931-6.923-27.355-9.584c-5.297-1.484-10.482-3.789-15.867-5.195c-10.813-2.795-21.583-5.925-32.722-8.26
			c-5.591-1.194-11.193-1.771-17.039-2.724c-11.422-1.843-22.799-4.302-34.413-4.751c-11.61-0.465-23.752-1.178-35.919-1.572
			c-11.87-0.437-23.9-1.087-35.408-2.661c-11.567-1.59-23.259-1.435-35.422-2.638c-11.595-1.145-25.387-1.19-37.758,2.27
			c-3.401,0.975-6.065,2.795-8.827,3.139c0.027-1.711,3.394-3.082,4.807-3.757c4.664-2.083,11.402-2.866,17.183-3.446
			c10.812-1.106,20.59-0.146,30.587,0.549c5.193,0.386,10.251-0.19,15.233,0.139c7.091,0.468,14.161,2.154,21.395,2.654
			c7.259,0.525,14.454,1.46,21.739,1.941c11.054,0.695,22.291,0.666,33.21,1.372c3.78,0.26,7.457-0.115,11.144,0.134
			c10.76,0.681,21.88,3.064,32.681,4.777c10.877,1.75,21.468,3.458,31.733,6.286c10.084,2.803,20.371,5.728,30.648,9.018
			c4.895,1.561,10.193,3.059,15.164,4.847c6.936,2.548,13.145,3.957,18.879,7.925C383.902,260.836,382.151,259.977,381.241,259.625z
			 M380.685,253.108c-7.308-6.181-14.668-12.54-22.308-18.394c-10.244-7.903-20.365-15.968-30.314-23.719
			c13.422,8.619,27.44,19.96,40.483,30.922c4.122,1.327,7.432,5.663,11.297,8.841c2.981,2.5,6.175,4.589,8.522,7.518
			C385.27,257.673,383.042,255.089,380.685,253.108z M338.044,80.053c1.015,2.849,2.318,5.848,1.979,8.07
			c-1.383,0.622-1.176-2.066-2.556-1.439c-1.399,0.846-0.996,2.525-1.587,3.774c0.263,0.979,1.231,0.431,1.94,0.481
			c0.019,1.704-0.333,4.021-2.374,4.063c0.716-5.668-6.662-10.415-4.382-15.691C334.042,78.208,335.481,80.282,338.044,80.053z
			 M329.452,77.252c-0.505,1.314,1.125,1.265,0.825,2.33c-0.889,1.102-4.051,1.101-4.398,2.44
			C325.334,80.471,326.677,77.948,329.452,77.252z M328.165,82.686c0.786,2.097-2.568,2.222-3.077,3.716
			C325.312,84.755,325.905,83.323,328.165,82.686z M330.685,87.33c-1.552,0.554-3.109,1.111-4.682,1.662
			C325.422,87.056,329.89,84.254,330.685,87.33z M320.908,86.133c0.357-0.132,0.684-0.251,1.042-0.371
			c0.157,0.422,0.308,0.86,0.454,1.286c-2.253,5.331-2.573,11.59-2.715,17.912C316.791,98.688,320.017,91.45,320.908,86.133z
			 M299.967,65.797c2.341,1.654,0.816,5.757,1.227,9.208c0.289,2.76,2.414,4.888,1.077,7.211
			C299.465,76.593,299.331,70.443,299.967,65.797z M280.62,55.701c-2.766-6.418-5.549-14.926-5.707-20.18
			c-0.232-0.401,0.103-0.518,0-0.88c0.248-0.083,0.506-0.18,0.771-0.266c1.232,6.816,4.131,18.687,8.497,25.616
			c0.878,1.396,2.408,1.966,2.419,3.519C283.759,63.057,282.048,59.044,280.62,55.701z M287.664,87.099
			c1.059,0.154,1.626,1.374,2.482,2.039C288.668,89.814,288.069,88.669,287.664,87.099z M292.561,75.428
			c2.119,4.565,2.386,11.623-1.731,13.173c0.856-1.817-1.417-2.87-2.263-3.865c-0.562,1.266-1.902,1.5-3.106,1.09
			c0.881,1.683,0.72,3.833,1.819,4.33c-4.072,3.508-8.554,0.611-10.856-2.579c0.771-2.511,2.94-4.345,2.306-7.539
			c-2.421,1.292-3.36,3.278-2.855,5.993c-3.512-4.705-3.211-11.323-0.44-14.466c1.695,0.659,2.049,4.153,3.414,5.511
			c2.112-1.578-0.824-4.532-1.36-7.132C283.579,66.385,289.839,69.48,292.561,75.428z M298.003,81.679
			c8.537,11.146,18.634,24.655,26.531,35.255C315.042,106.527,305.458,96.383,298.003,81.679z M311.79,115.653
			c4.016,4.12,9.125,5.915,13.851,8.537c-5.907-1.522-12.356-5.803-17.782-9.781c9.903,0.336,19.206,5.867,26.036,14.164
			C326.902,123.489,320.179,117.851,311.79,115.653z M335.316,134.201c5.437,3.086,10.973,9.894,14.958,17.476
			C345.16,146.137,339.675,141.368,335.316,134.201z M344.844,163.553c3.255-0.041,6.607,3.637,10.27,4.241
			C351.622,168.36,348.239,164.728,344.844,163.553z M335.998,156.738c0.87,2.426,2.789,2.627,4.415,3.399
			c-3.247-0.401-7.129-3.412-9.873-6.418c9.925,0.775,19.126,6.946,27.34,12.789C350.648,164.937,343.548,159.184,335.998,156.738z
			 M367.104,180.175c-2.181-1.604-3.887-4.195-5.435-7.101C363.844,174.688,365.708,176.939,367.104,180.175z M370.018,186.756
			c-5.541,4.548-11.497,8.886-15.051,14.402C355.843,195.381,360.512,187.74,370.018,186.756z M354.336,205.18
			c-0.612-0.523,0.365-2.133,0.037-3.231c6.927-3.67,8.92-9.688,17.092-12.784C371.503,197.242,358.935,199.301,354.336,205.18z
			 M392.202,258.379c-1.161-5.044,1.555-11.078,1.003-16.14c-0.598-5.197-2.863-11.349-4.861-16.986
			c-4.302-12.113-10.035-23.369-14.67-33.955c-0.081-0.242-0.174-0.504-0.28-0.779c0.184-0.067,0.349-0.122,0.533-0.186
			c2.422,2.46,3.295,6.299,4.875,9.669c5.406,11.39,13.707,28.218,15.597,41.519c0.364,2.686-0.362,5.969-0.701,8.726
			C393.353,253.141,394.166,256.505,392.202,258.379z M484.125,251.491c2.124,5.388,6.362,6.271,9.342,9.851
			c-17.754,4.052-33.477-0.02-47.492-5.377c11.291,9.057,24.072,14.997,33.707,27.512c-29.906-0.03-45.462-34.054-80.598-24.613
			c4.449-3.105,10.102-6.419,15.612-7.878c12.595-3.358,19.023,9.018,28.791,11.117c-5.148-6.123-13.126-8.688-18.859-12.003
			c22.044-3.733,40.136,0.859,63.796-6.277c-20.201,0.021-41.248,1.787-62.047,3.02c11.605-6.834,20.046-15.194,24.257-25.548
			c-5.233,7.062-11.022,13.937-19.47,20.059c-2.652,1.894-5.631,4.622-8.53,5.647c-3.023,1.064-7.146,0.978-10.928,2.121
			c-6.065,1.848-11.155,4.108-15.104,7.69c-1.104-7.113,14.029-10.424,21.165-14.514c19.039-10.997,25.827-29.079,36.619-43.365
			c1.297,6.94-1.127,13.967-1.335,20.917c5.841-4.516,10.862-10.416,20.399-12.489c-0.7,3.281-3.215,6.16-5.316,8.896
			c-6.315,8.287-14.8,16.65-25.794,22.885c17.149-2.041,38.713-18.462,53.155-13.297c-1.195,5.534-9.451,8.359-16.791,10.346
			c12.501,1.049,27.294-2.677,37.936,2.328C510.948,246.228,494.376,254.977,484.125,251.491z"/>
	</g>
	<g>
		<path d="M378.579,127.621c0.656-0.178,1.345,0.406,0.985,1.118C378.981,128.886,378.753,128.308,378.579,127.621z"/>
	</g>
	<g>
		<path d="M481.465,382.756c0.399,0.449,0.763,0.893,1.178,1.334c-4.125,1.86-4.544-1.362-6.859-2.814
			c-6.493-4.175-18.334-1.742-28.086,2.351c-13.788,5.761-25.081,16.345-30.986,24.715c1.065-4.864,5.856-10.249,11.393-14.844
			c4.035-3.389,9.092-6.778,14.668-9.588c8.057-4.071,17.099-6.855,25.369-6.067c0.239-0.041,0.349,0.16,0.612,0.073
			c-24.325-11.726-53.08-14.154-83.009-14.116c26.221-5.702,48.982-0.179,70.389,5.728c-6.728-11.975-15.291-20.088-22.453-31.18
			c7.476,6.635,13.195,14.398,19.598,23.128c2.061,2.787,3.684,6.265,5.996,8.696c2.718,2.837,8.697,3.784,12.484,5.492
			C475.836,377.549,478.711,379.792,481.465,382.756z"/>
	</g>
	<g>
		<path d="M407.743,191.798c0.637,2.452-0.319,4.153-2.508,5.269C405.495,195.021,404.855,192.586,407.743,191.798z"/>
	</g>
	<g>
		<path d="M380.536,120.807c0.084,0.248,0.696,2.625-0.021,3.206C380.217,122.795,380.458,121.839,380.536,120.807z"/>
	</g>
	<g>
		<path d="M378.448,116.57c0.308,0.428,0.239,1.626,0.803,1.461c-0.456,1.03-1.957,0.608-2.175-0.396
			C378.108,117.563,377.586,116.733,378.448,116.57z"/>
	</g>
	<g>
		<path d="M376.622,111.381c-0.047,1.267,0.101,2.633,0.603,4.168c-1.985-0.086-1.371-2.589-1.837-4.323
			C376.019,110.811,376.086,111.562,376.622,111.381z"/>
	</g>
	<g>
		<path d="M371.169,114.18c2.304-0.916,2.271,1.88,1.624,2.949C372.024,116.702,370.833,115.422,371.169,114.18z"/>
	</g>
	<g>
		<path d="M369.167,118.407c1.577,2.113-0.366,3.478,1.412,5.625c-2.004,0.404-1.976-3.389-2.976-5.08
			C368.124,118.772,368.644,118.594,369.167,118.407z"/>
	</g>
	<g>
		<path d="M337.153,83.299c1.579,2.543-2.335,2.469-1.927,4.47C332.488,86.888,334.962,83.878,337.153,83.299z"/>
	</g>
	<g>
		<path d="M283.732,27.428c0.019-2.306,3.839-3.881,6.357-4.303C289.254,25.131,286.833,27.211,283.732,27.428z"/>
	</g>
	<g>
		<path d="M284.065,30.813c1.808-0.639,3.635-1.288,5.441-1.922c0.39,1.611-1.735,2.071-2.73,3.008
			c0.549,0.674,1.671,0.133,2.281,0.652C288.543,35.599,283.622,33.95,284.065,30.813z"/>
	</g>
	<g>
		<path d="M281.204,17.813c3.017,2.431-1.787,4.671-0.107,7.909C277.201,24.234,280.517,19.847,281.204,17.813z"/>
	</g>
	<g>
		<path d="M285.752,19.108c0.157,2.091-1.146,3.473-3.39,4.425C281.013,20.987,284.869,19.848,285.752,19.108z"/>
	</g>
	<g>
		<path d="M289.853,79.314c2.996-0.81,4.806,6.134,1.179,6.601C288.729,84.103,292.053,81.786,289.853,79.314z"/>
	</g>
	<g>
		<path d="M289.342,74.532c0.81,1.756-0.126,2.666,0.692,4.423c-2.054-0.689-3.058-3.55-4.71-5.042
			c-0.731,0.14,0.123,1.07-0.786,1.135c-0.079-0.25-0.366-0.108-0.615-0.071c-0.925-1.673,0.89-2.641,2.314-2.57
			c0.493,0.65,0.893,1.49,1.357,2.145C287.867,74.746,288.748,73.96,289.342,74.532z"/>
	</g>
	<g>
		<path d="M281.848,69.879c0.999,2.277,1.006,4.067,0.888,5.81c-2,0.576-1.25-4.62-3.214-4.118
			C279.13,70.44,280.847,70.324,281.848,69.879z"/>
	</g>
	<g>
		<path d="M282.373,79.617c1.848-0.104,3.377,0.466,3.971,2.984C283.988,83.773,283.166,81.731,282.373,79.617z"/>
	</g>
	<g>
		<path d="M283.447,85.971c1.247,0.729,1.608,3.274,2.378,5.009c-1.869,0.254-3.287-2.701-3.413-4.642
			C282.757,86.211,283.102,86.098,283.447,85.971z"/>
	</g>
	<g>
		<path d="M280.814,85.14c1.861,0.946,1.431,4.698,2.746,6.047c-2.63,0.827-2.97-3.134-4.028-5.587
			C279.959,85.45,280.391,85.295,280.814,85.14z"/>
	</g>
	<g>
		<path d="M262.192,99.343c1.158,1.487,1.269,3.974,1.071,5.479c-2.192,0.031-1.522-3.174-2.715-5.203
			C261.25,99.201,261.593,99.561,262.192,99.343z"/>
	</g>
	<g>
		<path d="M247.977,135.053c-3.62,0.946-7.556-1.362-11.349-1.522c-0.185-0.513-0.825-0.11-0.894-0.854
			C240.487,132.074,244.167,133.687,247.977,135.053z"/>
	</g>
	<g>
		<path d="M203.852,59.251c2.908-0.2,5.163,0.942,6.105,4.848c-2.055,1.176-2.346-1.427-3.274-2.651
			c-0.841,0.109-0.267,0.882-1.109,0.993C204.782,61.85,204.269,60.658,203.852,59.251z"/>
	</g>
	<g>
		<path d="M180.472,195.203c0.37,1.601-2.606,2.258-3.724,1.914c-0.372-0.539-0.788-1.036-0.985-1.986
			C177.719,194.351,178.761,195.476,180.472,195.203z"/>
	</g>
	<g>
		<path d="M71.271,118.811c0.683,3.124-0.891,5.186-4.839,6.089c-1.173-0.994-2.613-1.453-3.113-3.865
			c-2.484,1.271-3.948,0.437-5.745,0.298c-0.987-2.187,0.099-3.424-0.108-5.219C61.316,118.288,67.294,125.272,71.271,118.811z"/>
	</g>
	<g>
		<path d="M62.713,111.912c3.42-1.312,5.565,0.066,6.601,3.786C67.275,114.086,64.339,114.339,62.713,111.912z"/>
	</g>
	<g>
		<path d="M25.958,61.818c1.934,0.484,4.079,0.497,4.771,3.573C28.456,65.861,25.437,64.343,25.958,61.818z"/>
	</g>
	<g>
		<path d="M23.69,62.028c0.544,1.56,1.111,3.126,1.662,4.683c-1.898,0.038-2.516-2.568-3.891-3.571
			C21.728,62.547,22.891,62.361,23.69,62.028z"/>
	</g>
</g>
</svg>
