<?xml version="1.0" encoding="utf-8"?>
<!-- Generator: Adobe Illustrator 16.0.0, SVG Export Plug-In . SVG Version: 6.00 Build 0)  -->
<!DOCTYPE svg PUBLIC "-//W3C//DTD SVG 1.1//EN" "http://www.w3.org/Graphics/SVG/1.1/DTD/svg11.dtd">
<svg version="1.1" id="Layer_1" xmlns="http://www.w3.org/2000/svg" xmlns:xlink="http://www.w3.org/1999/xlink" x="0px" y="0px"
	 width="712.943px" height="552.076px" viewBox="-174.057 -48.924 712.943 552.076"
	 enable-background="new -174.057 -48.924 712.943 552.076" xml:space="preserve">
<g>
	<g>
		<path fill="#A3462A" d="M341.917,115.473c1.376-2.578,3.73-5.616,1.524-8.073c-1.261-1.349-4.578-1.388-6.357-1.171
			c-8.637,1.099-21.401,14.47-29.515,19.19c5.506-9.657,11.076-19.309,10.135-29.577c-6.799-1.145-13.758,8.362-17.688,13.653
			c-1.109-5.231-1.556-12.165-8.043-16.595c-8.372,17.41-4.72,37.889-18.703,54.587c-4.691,5.578-12.049,10.579-17.041,17.424
			c-0.335-12.099-21.138-26.971-29.965-39.92c-4.258-6.153-2.833-14.489,5.604-14.341c-3.1,6.413,5.225,20.439,13.178,18.428
			c2.415-0.575,4.606-2.463,6.768-3.479c2.316-1.098,4.586-1.976,6.982-3.667c-1.535-5.954,5.894-10.577,1.854-15.859
			c-2.915-3.802-7.106-2.163-9.707-7.355c-5.901-2.064-11.79,7.175-18.269,9.476c-3.604,1.27-7.623,0.019-10.436,2.941
			c-2.272,2.38-0.812,5.703-2.26,7.617c-7.752-6.365-4.623-13.447-1.154-19.452c5.233,1.625,10.396,2.81,15.938-3.23
			c6.962-7.63,0.727-22.769-10.122-23.806c-6.009-0.625-11.065,4.069-14.653,10.389c0.961,4.585,0.673,9.061,4.4,13.882
			c-5.157,5.08-3.521,10.761-2.474,16.399c-16.314-12.408-34.894-35.461-26.242-50.915c3.735,1.571,11.039,2.236,14.488-0.223
			c3.107-2.153,4.667-7.033,4.459-10.154C204.03,41.401,190.89,32.904,183.048,39.5c-4.271,3.614-4.053,8.625-4.659,12.48
			c-0.498,2.863,0.834,5.452,3.718,8.361c-5.9,8.957-3.464,18.723-0.266,28.531c-12.518-13.345-30.256-16.864-42.777-30.347
			c-5.577-5.968-8.538-12.885-6.585-17.785c4.013,4.955,12.727,4.952,16.321,1.093c2.645-2.784,1.263-8.388-1.079-11.637
			c-2.291-3.166-6.583-6.287-10.706-6.843c-1.477-0.207-5.798-0.141-7.378,1.479c-1.257,1.276-1.332,5.053-1.84,7.251
			c-1.805,8.016-1.661,15.069,2.985,22.963c-9.451-4.617-20.769-17.003-25.758-27.938c11.337,2.134,25.391-13.2,14.231-23.386
			c-4.137-3.766-9.141-2.593-13.675-6.521C99.821,1.978,91.296,8.677,93.509,13.696c0.544,1.215,1.958,2.123,2.64,3.168
			c4.001,6.011,3.437,13.671,7.209,19.442c-9.99-8.28-22.821-14.872-30.436-28.412c1.402-0.392,2.777-0.452,4.073,0.181
			c1.192,0.63-0.128,2.698,1.004,2.05C85.044,6.53,89.877-0.298,92.146-5.597c-1.951-5.077-6.486-10.379-7.781-15.382
			c-2.792-1.569-5.92,0.571-8.91,1.335c-1.569-2.161-3.21-3.547-4.952-3.776c-2.541,1.833-3.367,4-5.352,5.18
			c-1.235,0.736-2.649,0.478-3.849,1.406c-7.044,5.385,0.055,14.292,4.433,22.111c5.425,9.688,13.587,21.949,21.801,26.652
			c-3.388,1.006-7.672,3.666-9.252,6.957c-3.56,7.564,5.118,18.208,13.771,20.073c0.38,0.113,0.773,0.144,1.125,0.213
			c2.673,0.332,5.3-0.247,7.493-2.006c3.694-3.01,4.04-7.539,5.353-11.625c10.068,7.509,20.233,14.059,30.499,19.425
			c-4.946,0.523-10.858,0.3-15.527,5.016c4.825,1.849,9.745,3.247,15.303,3.753c4.991,0.451,11.466,0.26,15.613,2.425
			c2.752,1.417,5.099,3.749,7.725,5.376c8.023,4.991,15.654,8.723,23.512,14.472c-8.629-0.454-17.013-3.556-26.133,1.328
			c11.643,8.186,24.06,7.68,36.426,8.034c4.045,4.229,8.37,5.269,12.432,9.356c-11.243,10.252-8.139,21.81-5.609,33.319
			c2.296-8.661,7.695-17.022,14.842-25.241c15.931,11.125,37.271,34.565,36.912,51.703c-36.945-15.647-75.58-24.597-112.336-35.14
			c9.354-1.938,23.286-10.905,29.272-20.782c-11.5,1.087-23.667,9.241-35.552,14.534c-1.872-6.82-0.91-18.167-6.396-26.211
			c-4.373-6.383-11.285-11.621-16.999-8.785c9.259,10.694,9.355,21.578,9.886,30.83c-9.148-11.931-23.644-14.663-32.285-25.454
			c-2.707-3.414-4.08-6.996-3.722-10.517c16.318-3.137,16.725-24.885,3.359-28.106c-0.387-0.119-0.798-0.172-1.217-0.248
			c-0.476-0.071-1.001-0.115-1.484-0.121c-11.774-0.608-21.599,15.509-11.826,24.522c2.166,2.018,4.21,2.279,7.071,3.773
			c-0.015,2.482,0.783,5.03,0.88,7.524C68.6,91.19,56.051,87.237,43.744,80.896c10.578-1.333,17.949-12.793,15.171-20.513
			c-7.636-21.367-41.512-0.812-27.798,15.259c2.26,2.65,4.363,2.583,6.951,5.323c-6.847-3.316-19.768-1.293-22.31-12.603
			c11.181-3.784,15.893-16.639,6.918-24.405c-5.287-4.55-13.926-2.961-19.636,3.096C-1.514,51.907-2.902,59.87,4.211,66.14
			c2.477,2.168,5.777,1.4,8.437,4.079c1.487,1.514,1.111,3.551,3.592,5.603c-5.638-0.32-11.277-0.703-16.791-2.502
			c0.586-10.521-11.546-17.675-18.991-16.814c-11.09,1.298-19.051,15.858-12.528,25.843c7.438,11.475,21.311,7.182,30.36-2.682
			c28.593,0.327,56.317,9.976,83.433,26.229c-9.793,1.052-19.242-1.896-29.551,4.508c0.129,0.079,0.257,0.15,0.373,0.243
			c11.338,7.389,23.889,1.21,36.019-0.416c10.466,5.914,20.485,16.934,30.764,24.925c-11.6-0.383-23.27-0.777-34.839-1.826
			c-11.307-1.036-23.765,0.195-34.294-7.634c0.576-4.253,1.863-8.385,0.689-12.297c-0.135-0.552-0.391-1.133-0.678-1.628
			c-0.59-1.205-1.481-2.419-2.707-3.543c-10.858-10.1-32.668,7.447-16.771,18.611c1.4,0.954,3.605,1.095,4.718,1.79
			c-8.813-0.49-18.796-0.131-26.518-5.17c7.137-6.295,9.036-13.411,4.115-19.188c-7.096-8.29-23.273-1.467-23.521,9.196
			c-0.091,3.28,2.728,8.588,7.247,10.451c3.991,1.627,8.438-2.502,12.417,3.296c-14.273-3.533-30.798,6.029-43.765-4.815
			c2.479-1.169,5.302-2.66,7.301-4.997c8.502-9.803-6.381-28.059-19.766-23.331c-5.723,2.031-10.223,7.794-10.698,12.127
			c-0.258,2.693,0.438,9.852,5.015,13.765c2.616,2.291,7.943,2.46,11.417,3.378c4.065,1.093,7.631,2.504,11.382,5.937
			c-9.184,0.656-18.408,1.714-27.507,1.399c-0.393-1.77-0.433-3.408-1.135-4.795c-6.889-14.275-26.7-6.429-29.331,6.494
			c-9.532,0.102-19.384,3.827-28.282-2.974c3.946,0.639,8.91-0.213,12.185-4.77c5.872-8.208,0.763-31.496-13.415-28.592
			c-11.185,2.27-17.937,16.114-12.253,24.88c6.282,9.625,13.732,10.896,21.603,16.055c-12.264,4.277-25.361,6.481-36.004,0.225
			c5.451-4.007,7.427-13.098,6.045-16.844c-0.88-2.265-3.225-4.614-4.2-5.476c-11.636-10.859-36.625,4.625-24.437,19.268
			c5.042,6.069,9.885,4.074,15.542,5.339c4.559,1.038,7.414,3.972,11.874,6.959c-15.491,4.333-21.426,21.472-22.274,31.781
			c15.368-2.415,21.479-20.838,28.663-30.998c10.586,1.677,21.815-3.419,32.923-7.351c-14.515,8.03-21.723,21.187-8.946,33.587
			c13.222,5.979,34.031-14.805,19.527-27.335c-2.28-1.979-4.68-1.469-7.263-4c3.29-2.362,6.53-4.488,9.52-3.615
			c6.625,13.357,23.386,10.577,29.304-1.811c6.019,0.479,13.417-2.486,18.617-0.449c-13.248,2.792-19.328,15.376-23.811,25.191
			c-2.28,4.943-5.728,9.423-7.343,13.996c-0.443,1.258-1.066,3.757-0.181,4.083c20.72-10.122,33.32-30.644,47.597-45.687
			c11.618-1.193,24.487-3.244,35.062-0.506c-14.192,6.844-27.241,21.521-29.058,33.128c15.864-5.128,27.161-22.549,35.218-34.309
			c14.286,2.79,29.042,0.372,43.195,4.535c-9.837,17.156-6.706,35.558-5.709,53.71c0.155,2.629,0.252,5.171,0.261,7.777
			c10.323-15.204,12.541-32.221,15.312-47.48c10.838,15.522,24.021,23.723,36.473,28.771c-9.239-14.468-23.739-33.271-36.815-42.091
			c57.943,1.326,115.376,19.837,171.009,39.343c-31.935,0.774-63.987,0.866-97.912,8.036c-24.458,5.178-49.472,13.023-74.664,20.927
			c-10.749,3.361-22.142,9.205-30.86,3.812c5.587-3.269,7.759-7.408,7.732-11.528c-0.119-10.342-14.417-20.419-23.677-14.981
			c-9.964,5.833-10.419,17.504-3.796,24.293c6.873,7.055,15.255,1.337,21.679,6.692c-18.831,0.417-39.452,20.685-57.206,9.62
			c12.612-0.706,22.32-15.107,14.026-24.935c-11.292-13.422-39.515,8.154-24.464,21.425c2.545,1.405,5.42-0.453,7.486,1.67
			c1.305,1.356,1.06,4.065,2.786,5.924c1.539,1.63,3.179,1.095,4.785,3.171c-12.074,5.802-21.964,16.947-25.754,27.174
			c-1.261,3.429-1.713,8.627,0.277,11.94c5.474,9.342,19.692,8.632,26.392,4.191c4.797-3.223,6.421-6.653,6.419-10.368
			c0.061-10.558-12.368-17.242-20.089-17.683c15.662-12.777,30.561-17.46,45.332-20.865c-6.146,3.865-9.833,9.484-9.354,14.585
			c-11.203,3.408-15.988,17.312-6.641,25.58c8.223,7.326,21.443,2.168,30.771-7.336c0.892-9.628-12.076-22.719-20.99-20.506
			c4.582-12.929,20.543-16.487,30.731-19.458c11.581-3.38,23.262-6.064,34.07-9.011c-10.326,11.705-12.559,24.671-13.182,37.113
			c-0.224,4.179-0.652,8.545,0.406,12.569c12.303-14.659,14.099-31.298,20.246-45.866c4.332,11.079,14.92,27.416,26.166,34.463
			c-0.719-13.004-11.26-31.632-25.311-41.626c26.226-7.42,53.649-16.391,78.713-18.189c-13.721,9.983-20.886,23.107-24.712,34.873
			c-1.21,3.641-5.262,8.761-1.305,12.193c14.435-15.288,32.516-31.952,34.015-49.072c21.775-1.402,44.663-3.972,66.046-3.718
			c3.045,0.033,6.244-0.478,9.145,0.636c-9.981,10.32-22.542,14.81-32.32,24.02c-7.597,7.158-12.251,16.348-16.14,24.532
			c-3.033,6.381-5.18,12.433-5.823,18.815c-0.221,1.977-1.149,4.438,0.204,6.286c16.364-20.673,37.962-40.851,52.583-61.653
			c-2.848,15.494,3.401,31.844,11.98,48.423c5.254-18.887,8.499-37.949-2.273-58.298c24.59,9.039,49.15,18.455,72.961,36.01
			c-5.738-0.576-12.218-4.201-18.031,2.468c0.02,2.069,1.564,5.147,3.885,6.802c-8.817,0.167-20.399-5.655-27.717,5.845
			c9.073,11.293,19.572,6.846,29.077,13.448c-16.518,7.634-35.34-0.984-51.809,12.642c-1.975,1.645-4.25,3.664-4.832,5.817
			c2.195,2.939,4.834,1.171,7.117,3.399c-8.376,3.492-18.781,11.801-23.506,19.531c14.252,8.169,29.846,1.633,45.216-2.485
			c-2.09,5.441-7.109,10.689-2.916,16.739c14.365-5.21,30.207-26.484,44.133-27.048c-5.714,5.771-6.485,13.882-12.987,20.124
			c-6.936,6.664-16.517,11.944-14.147,20.031c7.82,2.812,16.009,1.652,24.432-2.063c0.458,4.281-1.733,8.306,2.902,12.968
			c13.728-7.033,16.978-18.225,20.069-28.867c2.151-7.455,3.392-16.499,9.282-22.394c11.164-11.209,23.66-7.465,34.989-8.349
			c37.234,28.969,74.07,70.812,110.849,111.271c22.028,24.251,43.277,50.98,55.68,76.32c0.573-1.681,1.193-3.359,1.715-5.059
			c-1.158-2.165-2.307-4.349-3.517-6.478c-16.688-29.839-45.31-60.505-69.09-86.508c-25.043-27.381-50.746-54.17-75.714-76.362
			c-38.177-33.987-76.998-64.981-116.527-83.629c-13.326-6.28-27.001-11.322-40.338-18.37c0.13-0.191,0.267-0.115,0.376,0.032
			c57.266,19.165,112.229,59.246,166.737,109.541c27.127,25.086,55.388,53.462,80.733,83.274
			c22.131,26.04,43.146,51.947,57.621,77.538c0.344-1.06,0.643-2.125,0.978-3.182c-6.632-11.499-13.72-23.039-23.267-34.829
			c-2.699-2.454-4.925-5.27-6.979-8.307c-0.087-0.116-0.083-0.218-0.146-0.331C446.625,297.352,355.346,213.214,261.333,177.5
			c31.69-25.71,57.896,8.492,88.807-8.677c-8.239-9.81-17.474-8.517-26.167-13.336c9.807-1,20.734-2.875,30.728-13.038
			c-2.074-3.695-5.595-2.939-7.203-4.748c9.101-4.655,16.268-12.823,19.548-20.581c0.775-1.814,1.278-3.571,1.605-5.26
			C360.159,108.412,350.97,112.592,341.917,115.473z M242.663,103.831c0.912,1.435-1.674,2.582-0.572,4.055
			c-1.714,0.299-3.337-0.501-5.213,1.473C237.439,107.172,240.49,106.098,242.663,103.831z M239.093,110.726
			c1.646-1.597,3.023-0.162,4.552-0.546c1.449-2.634,0.201-7.104,4.662-8.174c2.847,4.426,11.078,2.108,11.866,9.095
			c-0.948,0.493-1.925,1.137-2.923,2.087c-0.374,0.776-0.204,1.672,0.75,2.6c-0.768,0.514-1.499,0.653-2.313,1.559
			c-0.533,0.928,0.251,2.003,0.716,2.999c-1.687,1.405-3.383,2.81-5.068,4.22c-1.638-0.864-3.169-2.57-4.808-3.174
			c-1.414,1.954,1.115,4.267-0.956,6.177c-2.138-2.236-4.541-1.719-6.622-4.517c4.148-3.341,8.054-4.104,11.881-3.805
			c3.612-4.211,5.933-10.252-0.263-14.11c-1.231,2.037,2.175,4.5,2.306,6.67c-2.98,0.706-2.292,3.894-3.267,5.951
			c-0.568-0.877-1.221-1.084-1.852-1.333c-2.412,0.036-5.108,3.095-7.535,3.414c-0.767-0.917-1.524-1.836-2.294-2.758
			C241.691,116.648,239.977,112.874,239.093,110.726z M235.783,112.78c0.875-0.962,1.498,0.72,2.215,1.37
			c-3.212,1.031-2.157,4.07-0.573,6.226C233.897,119.407,234.983,115.125,235.783,112.78z M234.173,89.74
			c-2.532-0.394-1.298-3.57-0.525-4.929C234.866,85.768,232.564,88.104,234.173,89.74z M218.397,78.514
			c1.389-1.083,2.635-0.397,3.965-0.79c0.546-2.173,2.978-1.465,4.496-1.929c2.075,1.664,3.204,3.697,4.967,5.52
			c0.09-0.965-0.444-1.947-0.701-2.987c2.13,0.127,1.25,3.002,2.919,4.378c-0.597,0.652-1.038-0.033-1.563-0.154
			c0.263,1.392-0.836,1.421-1.929,1.973c-0.285,0.591,1.106,0.749,1.395,1.688c-0.874,1.161-1.704,2.334-1.682,3.571
			c0.348,1.132,0.975-0.693,1.365-0.063c0.015,2.733-3.945,1.546-5.741,3.344c1.24-3.536-3.895-5.902-6.552-3.488
			C217.08,85.7,217.994,82.141,218.397,78.514z M215.246,80.777c1.104,3.257-0.57,15.468,7.683,10.096
			c1.134,1.567-0.284,2.093,0.667,3.383c1.536,2.056,4.119,0.868,6.516-0.77C226.064,105.688,206.996,88.578,215.246,80.777z
			 M216.177,98.271c1.185,1.34-1.919,3.994-2.291,5.838C213.558,102.083,214.971,100.17,216.177,98.271z M182.232,46.264
			c1.433-1.424,2.525,1.017,3.922-0.033c1.166-1.313-1.994-2.815-2.045-3.316c1.405-2.67,4.879-0.004,5.786-3.367
			c2.407,1.225,2.935,4.544,4.367,5.671c1.364-1.238,1.026-2.646-0.209-4.111c2.455-0.209,3.943,2.502,5.815,4.828
			c-0.335,0.03-0.641-0.125-0.96-0.287c0.066,2.153-0.774,4.232,1.16,6.562c0.196,3.226-3.113,5.58-5.635,1.82
			c-1.308,1.449,0.34,4.792,2.463,2.976c0.179,0.847-1.128,1.585-0.816,2.469c-2.516-1.735-3.844-5.055-5-7.314
			c-2.525,0.548-1.45,3.13,0.355,4.734c-1.45-0.543-3.976,1.324-3.991,2.951C181.866,56.37,183.526,50.631,182.232,46.264z
			 M182.345,79.123c1.898,2.433,2.647,8.078,5.578,11.862C183.653,87.588,183.184,82.868,182.345,79.123z M97.353,10.12
			c-0.685-2.697,3.93-3.738,5.266-6.154c2.351,2.042,5.985,5.41,8.03,8.363c0.691,0.978,0.461,2.479,1.727,2.514
			c1.43-1.439,0.025-3.144,0.031-4.69c-3.44-0.053-4.495-5.708-7.758-7.173c-0.213-0.901,1.062-0.394,1.483-1.222
			c0.375-0.87-0.923-0.767-1.229-1.501c2.788-1.179,5.009,3.733,7.9,1.312c2.784,4.14,9.126,5.606,7.861,10.307
			c-0.543-3.018-4.311-0.938-6.1-3.871c-0.956,0.433-0.157,1.027-0.918,1.461c1.011,2.445,3.885,1.374,5.042,2.625
			c1.204,1.308,0.476,3,0.911,4.97c-1.623,1.346-3.134,1.178-3.744,2.396c-1.147-1.08-0.922-2.044-1.477-3.083
			c-2.267,0.807-0.629,3.572,1.271,5.407c-3.066-1.39-6.014-4.138-9.279-3.392c0.269-0.801,1.314-1.573,1.599-2.387
			c-2.066-2.707-4.359-2.365-6.842-0.053C100.616,14.103,100.598,9.295,97.353,10.12z M100.098,18.595
			c1.632-0.039,3.521-2.869,5.157-2.863c0.072,1.267-1.008,2.408-2.091,3.537c2.728,2.339,5.787,0.929,8.641,1.755
			C109.719,26.221,102.595,22.722,100.098,18.595z M66.169-14.428c-0.556-2.463,2.703-4.582,4.727-6.818
			c1.725,0.425,3.219,3.29,4.843,4.941c1.911-2.715,4.857-3.329,7.152-3.432c0.583,4.294,4.786,8.906,7.189,13.352
			c-1.25,2.825-3.451,5.553-6.415,8.234c-0.614-0.784-0.017-1.438,0.749-2.083c-1.768-0.576-4.601,1.427-5.918,2.767
			c0.796,1.238,1.817,0.037,2.648,1.02c-2.607,0.043-5.174-0.526-7.821,0.066c-0.992-3.415,1.896-11.258-4.831-7.09
			c-0.545-2.25-2.948-9.63-6.7-5.873C60.83-11.309,63.191-16.368,66.169-14.428z M62.812-7.698c3.951-1.022,2.592,4.179,4.301,6.455
			c1.131,0.497,2.461-0.854,3.63-1.23c1.367,2.214-1.121,3.971,0.504,6.207C66.87,2.902,62.838-3.884,62.812-7.698z M73.281,72.077
			c1.472-0.214,2.624,2.771,3.979,3.873c0.655-1.692-0.337-3.568-2.07-5.476c6.552-2.465,12.982-3.848,18.593,4.252
			c-1.946-0.102-3.751-1.659-5.54-3.639c0.612,2.011,2.989,3.022,4.234,5.086c0.41,1.074-0.379,2.054,1.261,3.236
			c-1.852-0.655-6.411,0.623-5.223,3.639c-2.119-0.264-3.888-4.473-6.026-4.666c-1.345,1.179-3.011,2.333-1.894,3.738
			c-2.875-0.787-5.234-7.059-8.29-5.638C71.796,74.94,72.57,73.49,73.281,72.077z M72.063,79.196c0.218-0.252,0.42-0.286,0.587-0.14
			c3.062-1.279,5.356,5.697,8.253,6.021c2.128-0.877,1.539-2.886,2.265-3.302c2.722,5.488,7.195,5.049,8.184,0.352
			C90.302,94.095,69.809,90.554,72.063,79.196z M81.372,92.563c0.357-0.113,0.678-0.087,0.97,0.296
			c-1.147,2.482,0.627,5.265,1.228,7.919C81.055,99.392,80.726,94.895,81.372,92.563z M-157.668,174.67
			c1.63-7.931,3.61-15.849,13.056-23.059c-3.116,4.932-7.346,9.751-10.726,14.673c7.043-3.233,8.539-11.346,15.275-15.228
			C-141.116,159.398-148.265,167.686-157.668,174.67z M-89.71,152.164c-1.811,1.976,1.995,5.961,1.938,8.779
			c-1.024,1.14-1.815-0.112-2.7-0.648c-0.278,2.81-0.788,6.714-4.813,7.973c-0.999-1.197-1.996-2.409-3.005-3.615
			c-2.417,1.693-0.66,3.732-0.706,5.616c-1.414,0.517-2.763,0.278-4.166,0.596c-1.142-2.383-1.389-4.688-1.891-7.01
			c-1.062-0.556-2.349,1.542-3.536,2.207c-2.822-2.183-3.616-5.414-4.539-8.036c1.555-1.432,3.976-2.762,3.926-4.349
			c-0.537-0.616-1.066-1.256-1.589-1.884c0.874-0.677,3.913-1.891,3.019-3.25c1.099-0.421,1.936,1.804,2.893,2.617
			c2.605-1.197-0.2-2.889,0.396-4.258c1.685-1.222,2.959,1.819,4.555,1.586c1.12-0.529,2.209-1.435,2.581-2.517
			c2.438,1.077,0.45,4.882,3.406,5.411c1.265-0.931,0.343-2.067,1.834-2.973C-90.649,149.007-90.004,151.016-89.71,152.164z
			 M0.99,144.047c-2.456,4.129-7.46,8.05-9.532,12.226C-8.003,152.852-4.206,147.058,0.99,144.047z M-7.762,158.499
			c3.566-6.31,9.153-12.455,16.547-18.423C5.463,146.413-0.377,152.53-7.762,158.499z M-19.351,218.654
			c-2.634,0.826-4.921-2.773-4.991-5.175C-22.148,213.754-21.424,216.71-19.351,218.654z M-7.677,217.178
			c-0.059-0.74-0.316-1.483-1.156-2.261c5.715-0.517,2.488-6.913,5.125-8.931C-2.699,209.933-3.902,213.68-7.677,217.178z
			 M-24.471,202.118c1.439,1.312,2.96,1.72,4.4,3.156c0.955-0.495,0.189-2.836-1.372-4.228c1.048-0.101,2.381,1.194,2.698,2.406
			c0.582-1.256,0.049-2.613-1.177-4.018c3.01,0.157,5.661,3.633,8.738,2.749c1.099-1.336,0.637-2.819,0.39-4.257
			c1.516-0.189,2.365,1.189,2.893,2.617c0.831,0.771,1.789,0.345,2.753-0.158c0.992,1.266,0.616,2.404,2.004,3.715
			c-1.197,0.137-1.387-1.794-2.683-2.799c-2.558,1.526-1.491,3.392-1.459,5.159c-0.483,0.467-0.923,0.235-1.41,0.447
			c-0.714,1.426,2.189,3.188,1.737,4.658c-0.282,0.248-0.562,0.473-0.842,0.715c-1.48-1.062-2.837-3.216-4.592-1.204
			c-0.76,1.88,3.574,4.231,1.415,5.988c-2.617-2.833-6.562-9.376-8.579-4.693c-0.06,0.776,0.056,1.557,0.958,2.431
			c-1.846,0.287-3.419-2.593-5.08-4.361c-0.327,0.02-1.027,0.831-1.803,0.398c-0.57,1.333-1.407,2.618-0.556,4.059
			C-29.596,211.057-26.922,206.085-24.471,202.118z M20.677,264.159c-1.546,1.159-4.678,1.334-6.743,0.942
			c0.713-2.004,3.424-3.857,2.514-6.035C18.202,259.881,18.828,263.313,20.677,264.159z M31.29,254.943
			c-1.236,0.827-0.997,1.749-1.006,2.668c-3.11,1.21-5.603-4.357-8.358-7.031c-0.19,3.456,4.926,7.365,5.461,10.88
			c-1.728,1.719-3.312,1.894-4.885,1.889c-2.251-4.382-7.697-9.056-9.317-13.374c-1.901,2.228,0.833,6.598,1.654,9.745
			c-1.265,1.573-2.634,3.139-4.739,4.637c-1.804-1.653-3.777-1.518-5.495-4.013c1.786-2.381,2.652-4.836,2.044-7.439
			c-2.048,0.829-1.595,4.321-3.59,5.144c-1.532-5.362,1.766-13.526,8.847-15.622c1.923,1.529-0.033,4.271,0.99,6.363
			c1.503-0.782,1.888-3.726,4.516-4.479C22.008,247.173,27.659,248.933,31.29,254.943z M29.224,247.737
			c-4.243-2.026-8.589-2.945-12.72-6.258C20.975,241.043,25.268,242.485,29.224,247.737z M199.206,247.094
			c-1.191-0.375-0.075-1.615,0.007-2.164c3.011-19.314,21.108-42.51,45.611-55.835c-10.491,12.59-19.858,25.292-29.688,37.941
			c14.304-11.718,19.904-25.935,33.246-38.391C236.98,208.596,216.319,227.674,199.206,247.094z M259.173,235.185
			c-9.256-16.369-13.01-32.225-6.244-47.108c1.916,8.916,1.943,19.331,7.092,29.2c-2.313-10.194-3.269-20.26-5.612-30.429
			C266.746,203.023,262.275,220.418,259.173,235.185z M383.384,259.258c0.452,0.388,0.905,0.717,1.321,1.084
			c2.294,1.827,4.44,3.617,6.604,5.334c-0.821,0.966-2.14,0.167-3.154,0.103c-7.654-0.365-19.259,0.822-27.472,7.458
			c-7.806,6.319-9.081,15.139-11.112,23.241c-2.584,10.198-5,20.806-17.246,27.949c-2.555-5.447-1.163-11.4,5.521-15.343
			c-10.771,4.419-21.558,9.159-31.726,7.064c1.238-7.558,8.45-10.929,14.844-17.021c9.099-8.648,9.923-24.035,23.83-25.201
			c-16.264-4.666-37.22,12.04-55.315,27.4c-0.934-0.843-0.443-2.597-0.218-4.13c0.689-4.332,2.648-9.885,6.569-14.071
			c-15.883,4.759-31.913,11.094-46.94,6.469c10.449-12.224,24.939-18.914,36.451-22.091c-6.01-2.105-14.459,4.025-20.731-2.095
			c24.743-13.831,47.694-8.403,71.985-17.266c-14.424-0.517-30.27-4.422-44.612-12.67c10.395-7.338,19.704-2.545,29.335-1.434
			c0.665,0.075,1.293,0.123,1.943,0.182c1.468,0.041,2.94,0.014,4.462-0.173c-3.272-1.107-9.739-4.32-11.995-10.092
			c14.334-4.806,28.783,5.664,42.376,15.61C366.72,245.891,375.391,252.729,383.384,259.258z M141.692,132.305
			c6.039-5.507,13.253-5.453,19.796-8.936c-6.371,9.655-17.968,12.07-26.221,14.999c4.284-6.132,11.056-4.358,16.446-8.673
			C149.286,129.037,145.003,130.332,141.692,132.305z M37.195,58.386c5.567-8.026,15.964-4.487,19.349,4.329
			c-3.523-1.119-6.706-6.295-10.384-6.041c-0.843,1.35,1.738,3.018-0.012,4.3c-1.245-0.632-0.671-2.616-1.401-3.84
			c-1.346,0.452-2.65,0.404-3.807-1.153c-2.11,2.352,2.18,5.285,1.426,7.781C41.573,62.71,40.284,56.791,37.195,58.386z
			 M36.034,60.438c4.236-1.022,3.428,4.616,3.875,6.797C37.452,65.644,36.499,62.509,36.034,60.438z M33.917,64.338
			c3.402,0.219,3.378,5.077,4.402,7.458c0.45,0.751,1.024,0.091,1.519,0.524c2.032-0.874,1.688-2.78,2.433-3.104
			c1.597,1.762,0.089,3.276,2.078,5.087c3.663-0.197,1.8-4.076,3.848-5.718c2.476,0.685,1.678,3.626,1.853,5.271
			c5.414-0.688-0.136-8.796-3.411-7.549c-1.237,0.783-1.647,1.679-2.18,2.538c-0.821-1.052-0.082-1.965-1.485-3.089
			c2.08-1.227,0.877-2.151,2.431-3.091c3.677-2.208,5.111,6.198,8.927,2.965c2.6,9.959-13.249,15.509-19.508,10.156
			C33.485,71.874,32.921,68.028,33.917,64.338z M3.515,58.821c1.547,2.721,5.845,2.42,7.881-0.454
			c-1.319-2.07-3.012,0.12-4.542,0.562c-0.762-1.166,0.389-2.178,0.092-3.311c-0.702-0.787-1.667,1.159-2.441,0.953
			c-1.2-1.164-0.247-2.102-1.649-3.294c1.565-0.635,2.85,1.705,4.443,0.605c-0.544-1.382-3.357-2.1-3.942-3.877
			c1.41-1.112,2.613-0.163,3.944-0.42c0.704-0.582,0.254-1.28,0.177-1.933c1.266-0.283,2.223,2.81,3.532,2.075
			c1.322-1.269-0.814-2.181-1.667-3.284c1.714,0.023,3.419-0.272,5.096,0.085c0.692,0.841,1.396,1.695,2.101,2.535
			c1.344-1.045,0.275-2.32-0.064-3.526c2.053-1.05,3.676,2.559,5.574,3.234c-2.892-0.438-4.098,1.696-0.632,4.851
			c-1.698-1.471-4.184-2.803-5.125,0.315c1.963,0.937,3.738,3.985,4.823,4.945c-0.059,0.635-1.09,1.199-1.722,1.788
			c-0.097-0.473,0.398-0.871,0.707-1.312c-1.385-0.636-2.663-2.257-4.23-0.778c-0.51,1.199,1.832,2.646,2.575,3.969
			c-0.917,0.757-1.849,1.52-2.759,2.292C12.173,59.877,5.026,65.294,3.515,58.821z M13.848,69.948
			c0.218-0.183,0.423-0.342,0.638-0.526c1.29,2.257,2.83,4.565,3.87,6.788C16.276,74.849,14.71,71.849,13.848,69.948z
			 M-27.717,64.761c0.615,2.524-1.68,4.8,1.249,7.55c3.041-0.9,2.383-3.828,2.099-5.687c-1.111,0.621-0.914,1.359-1.552,2.005
			c0.121-2.074,0.899-4.088-0.208-6.254c1.607-1.171,3.079-0.832,4.698-2.13c0.156,1.707,0.852,3.47,2.64,5.342
			c-2.491-0.324-5.482,1.077-4.871,4.046c1.749,2.229,3.688,2.482,5.42,4.799c-2.511,0.354-4.669-3.173-7.476,0.477
			c0.164,1.07,1.689,2.252,2.425,3.361c-1.95-0.773-4.053,0.276-6.172,1.188C-31.474,74.331-31.857,69.324-27.717,64.761z
			 M-13.842,84.019c-2.458,2.769-6.242,1.185-9.127,1.516c-1.366-1.637-2.709-3.261-4.053-4.889c2.3-0.301,4.968,2.338,6.934-1.123
			c-0.359-1.289-1.814-2.479-2.805-3.363c2.414-0.82,4.582,1.117,6.94,1.021c1.754-3.004-3.402-6.542-5.667-8.54
			c2.201-1.17,4.118,0.584,6.275-0.206c1.035-1.985-2.779-4.436-4.083-6.638c4.14-3.211,7.756-0.706,11.342,2.034
			c-0.869,1.438-2.006-0.126-3.2,0.874c-2.933,2.443,1.903,5.523,4.3,8.607c-2.229-0.374-6.243-1.317-6.106,2.567
			c0.96,0.932,1.97,1.088,2.921,2.234c-1.004,1.302-4.956-1.394-7.436,2.243C-18.211,82.289-15.196,83.826-13.842,84.019z
			 M-7.134,81.316c-2.644,2.072-5.921,2.068-8.006-0.155c1.872-1.917,6.034,1.235,7.515-0.868c0.927-1.316-0.688-3.131-2.507-4.732
			c2.071-1.527,4.181,2.439,5.851,0.16c1.708-2.397-3.684-5.234-5.672-8.544C-1.701,66.944-1.506,76.81-7.134,81.316z
			 M56.445,110.792c0.529-0.709,0.929-0.232,1.378-0.051c4.482-2.597,9.435-2.01,13.884-2.256c4.458-0.243,9.12-1.547,13.52-0.14
			C75.445,111.166,65.688,113.871,56.445,110.792z M69.82,97.163c-10.193-4.953-19.762-9.961-30.699-12.796
			c-7.236-1.86-14.371-4.328-21.197-5.648c-2.625-0.51-5.997-0.306-9.122-0.642c-3.526-0.366-6.779-0.38-9.696-0.881
			c0.143-0.197,0.031-0.388,0.245-0.574c11.827-0.401,22.36,2.187,34.34,5.109c5.174,1.258,10.676,2.519,15.648,4.152
			c5.15,1.762,10.132,4.959,15.547,7.514c8.119,3.809,15.327,7.236,23.181,13.655c-2.003,0.596-3.173-1.522-4.464-2.366
			C79.486,101.964,74.405,99.388,69.82,97.163z M35.231,124.5c-1.169-1.354-1.697-2.63-1.787-3.87
			c2.241-0.965,3.975,3.623,6.161,3.102c0.93-0.831,0.891-1.739,1.422-2.624c3.772,2.675,4.411-3.662,7.828-4.332
			C50.049,123.717,39.558,126.396,35.231,124.5z M55.026,130.626c-1.852,0.153-3.483-1.835-5.154-3.604
			C51.562,127.1,54.069,129.255,55.026,130.626z M47.447,125.815c-0.107,1.033,1.408,2.224,1.662,3.285
			c-3.413,0.067-6.72-0.75-10.135-0.534C41.008,127.769,44.71,127.276,47.447,125.815z M33.086,109.836
			c4.382-2.752,9.656-0.411,13.267,2.195c0.167,1.062-0.116,2.069,0.51,3.16c-1.768,0.344-2.355,3.087-3.256,3.428
			c-1.084,0.499-2.022-0.705-2.993-1.444c-1.674,0.733-1.305,2.387-2.202,2.534c-3.021-4.943-8.201-0.395-7.856,2.614
			C26.473,117.763,28.571,112.673,33.086,109.836z M-6.842,110.086c2.683,1.646,3.968-2.044,3.498-3.977
			c1.781-1.748,3.319-0.8,5.071-2.081c1.126,2.716,3.976,2.836,6.069,2.117c0.584-1.082-1.445-2.148-2.227-1.381
			c-0.487-0.791,2.021-0.294,2.723,0.246c-0.277,3.049-5.09,5.664-5.299,8.71c2.169,1.545,3.025-1.802,3.419-3.206
			c1.898-0.375,2.73,1.271,2.865,3.01c-2.53,1.542-6.449,1.301-7.875,4.761c-2.204-1.301-5.117-4.667-7.127-1.261
			C-7.388,114.6-7.064,112.339-6.842,110.086z M-0.75,120.435c3.159,1.265,6.93-4.391,10.085-3.381
			c2.535-1.889,0.773-4.109,2.506-6.034C14.299,117.037,4.491,125.067-0.75,120.435z M-32.381,117.713
			c-1.86,3.156-4.937,1.318-6.987-0.628c1.698-1.416,0.161-3.108-0.337-4.733C-37.171,113.23-34.919,116.958-32.381,117.713z
			 M-31.16,117.05c-1.42-2.456,0.099-4.56-1.104-6.944C-30.39,111.764-28.892,115.093-31.16,117.05z M-44.209,97.468
			c1.27-0.179,4.116-0.876,4.714-0.352c0.227,0.241,0.471,2.476,0.883,3.217c0.785,1.365,1.901,1.708,2.258,3.131
			c-1.986,0.626-4.071,2.5-5.54,4.98c-3.12-2.258-5.104-9.379-9.171-4.569C-52.864,99.415-47.844,97.983-44.209,97.468z
			 M-53.99,103.815c1.578,2.809,4.036,2.551,5.437,0.485c2.285,2.757,4.549,5.825,7.041,6.327c2.476-2.048,4.322-4.292,6.995-5.829
			c0.78-1.409-1.277-3.109-0.558-4.532c2.81-0.57,5.995,3.85,7.392,6.734c-2.482,2.484-5.512-2.323-7.167,1.301
			c-0.512,1.163,0.286,1.981,0.852,3.598c-2.132,1.168-3.848-2.057-5.843-2.287c-2.819,1.486-1.301,3.383-2.224,5.053
			c-3.705-0.259-6.896-5.97-10.336-8.949c-0.972,0.047-1.98,1.403-2.153,2.143C-55.09,107.212-55.258,104.926-53.99,103.815z
			 M-52.048,108.298c2.855,2.135-1.256,3.642-0.326,5.637C-54.897,112.631-54.154,109.195-52.048,108.298z M-49.265,118.521
			c-1.233-1.266-2.403-5.96,0.533-5.82c2.958,4.645,6.33,4.882,9.478,7.511C-40.701,120.278-47.751,120.049-49.265,118.521z
			 M-109.742,110.431c-0.66,1.436-3.525,0.062-3.951-1.737c0.36-0.292,0.716-0.576,1.071-0.883
			C-111.665,108.64-110.812,110.854-109.742,110.431z M-117.984,104.396c0.767-1.112,2.221-2.145,1.862-3.348
			c3.906,1.943,13.006,6.066,9.312,11.604c-0.326-2.83-4.25-9.837-7.896-5.625C-115.706,105.185-116.979,106.174-117.984,104.396z
			 M-121.684,102.106c0.727,2.009-1.643,5.118-4.232,5.659C-126.398,105.7-123.743,103.926-121.684,102.106z M-119.996,104.983
			c2.62,3.855,8.69,6.854,6.829,10.796c-0.954-2.286-4.723-7.249-7.11-3.382C-121.609,110.576-122.216,107.128-119.996,104.983z
			 M-128.232,117.951c3.39-2.485-1.035-7.386,3.732-8.479c1.863,3.758,2.571,10.562,7.803,10.681
			c0.404-0.383,2.27-2.074,0.892-3.249c1.133-0.279,2.021,2.077,3.145,2.052c1.614-1.642,1.406-3.375,1.828-5.11
			c1.944,0.1,3.7,2.223,5.78,0.921C-101.012,128.467-124.144,130.718-128.232,117.951z M-143.657,117.874
			c1.652,2.49-1.307,4.243,1.671,7.198c-1.626,1.416-2.993,2.857-2.353,4.479c-2.08,1.243-3.708-2.222-5.676-2.085
			c-1.109,0.742-1.129,1.581-0.812,2.461c-1.941-0.112-3.556-3.911-5.467-4.413c-1.416,1.187-3.276,2.307-2.302,3.701
			c-1.749-0.028-3.195-3.425-4.91-3.781c-2.336,0.746-1.533,3.723-2.272,3.328C-172.201,117.666-149.252,109.513-143.657,117.874z
			 M-163.666,129.144c0.148-0.108,0.282-0.246,0.417-0.347c2.272-0.715,2.976,3.122,5.055,4.773c2.146-1.515,2.76-3.157,1.23-4.981
			c2.353-0.706,4.202,3.891,6.411,4.697c1.577-0.842,1.209-1.842,1.633-2.795c1.625,0.811,3.159,2.384,4.958,1.229
			C-148.712,140.107-162.351,138.549-163.666,129.144z M-93.717,136.146c-12.427,1.917-26.284,9.455-38.704,8.582
			c-4.716-1.221-9.518-1.481-14.017-5.207c-0.36-0.283-0.062-0.521-0.305-0.81c0.292-0.363,0.522-0.077,0.802-0.316
			c17.925,12.074,38.348-3.202,57.411-3.349C-89.832,136.5-92.041,135.881-93.717,136.146z M-82.858,134.988
			c2.832-0.913,3.328,5.01,5.289,6.361c1.133,0.772,4.43,0.299,3.34-2.446c2.033-0.738,3.646,2.354,5.547,1.492
			c2.233-1.03,1.868-3.513,0.143-5.855c1.679,0.281,3.2,2.114,4.835,2.791c0.662-0.912,1.424-1.017,2.538-2.113
			C-62.092,146.454-85.24,147.851-82.858,134.988z M-64.103,135.149c-0.992-2.226-3.484-3.845-5.313-3.809
			c-3.075,2.065,0.808,4.749-1.028,6.934c-1.81-2.312-3.642-4.367-5.674-4.22c-1.106,1.321-0.781,2.776,0.394,4.333
			c-2.415-0.046-3.301-3.968-5.531-5.786c-0.818-0.411-1.674-0.288-2.617,0.736c-2.082-4.01,4.301-9.262,7.761-10.05
			c5.379-6.094,14.454-0.142,13.882,6.373C-64.329,131.339-61.945,133.435-64.103,135.149z M-30.382,136.471
			c-12.208,7.879-19.635,19.394-28.275,28.893c10.826-7.162,14.759-16.628,24.744-24.501c-7.045,10.667-17.242,22.675-30.657,31.583
			c2.26-13.419,17.016-34.648,34.225-36.357C-29.931,135.923-30.18,136.308-30.382,136.471z M58.321,190.574
			c-0.871-16.059-3.885-34.092,3.438-50.15c-1.229,8.364-2.046,18.465-1.378,27.652c2.628-9.397,1.08-20.244,4.219-28.939
			C73.176,157.248,63.912,173.728,58.321,190.574z M70.626,145.931c6.898,5.981,13.445,15.505,20.34,21.425
			C83.978,162.9,76.02,154.285,70.626,145.931z M101.524,173.605c-3.044-0.869-5.938-3.343-8.949-4.742
			c-6.259-10.177-16.392-19.254-24.461-29.812C80.21,143.812,90.504,161.277,101.524,173.605z M118.016,138.735
			c-6.445-0.064-12.942-0.968-19.558-1.983c-9.347-1.423-19.047-0.146-28.449-1.033c-4.616-0.477-9.103-1.758-13.693-2.249
			c-9.102-1.022-18.187-1.333-27.607-1.729c-4.503-0.213-9.136-1.663-13.708-1.857c-3.658-0.178-7.551,0.615-11.38,0.51
			c-3.713-0.071-7.604-0.229-11.155-0.039c-4.052,0.21-7.966,1.27-12.046,1.439c-11.618,0.463-23.971,1.192-36.008,2.376
			c-0.218,0.167-0.383-0.115-0.564-0.258c0.156-0.185,0.025-0.386,0.241-0.567c6.699-0.558,13.986-1.363,21.129-2.164
			c6.912-0.812,14.028,0.508,20.583-0.64c1.932-0.362,3.724-1.496,5.638-1.848c3.398-0.597,7.52,0.198,11.332,0.277
			c3.867,0.049,7.843-0.267,11.35-0.131c4.606,0.148,9.272,1.211,13.921,1.635c4.538,0.438,9.22,0.489,13.833,0.695
			c9.202,0.441,18.307,2.186,27.462,3.297c4.576,0.554,9.366,0.235,14.043,0.513c13.569,0.88,27.692,1.141,41.312,3.588
			C122.576,139.616,120.192,138.774,118.016,138.735z M101.747,117.891c-0.358-0.298-0.09-0.521-0.304-0.809
			c0.203-0.171,0.416-0.359,0.631-0.532c7.348,4.808,15.471,11.781,21.8,20.189C117.164,132.122,109.241,121.815,101.747,117.891z
			 M114.142,100.065c15.77,5.385,16.313,25.65,17.561,36.605c0.164,0.407-0.206,0.187-0.382-0.037
			c-3.271-6.994-3.881-13.781-8.454-20.914c1.42,7.434,3.975,14.972,6.932,22.54C116.074,126.992,125.531,113.032,114.142,100.065z
			 M138.185,142.739c8.213,0.099,17.763,3.974,26.494,5.561C156.423,148.521,146.928,144.252,138.185,142.739z M41.066,203.84
			c-1.178-1.857-1.263-4.678-3.168-5.963c2.151-0.944,1.164-3.411,2.606-5.024C42.835,196.701,43.981,200.471,41.066,203.84z
			 M17.876,198.786c4.073-0.634,7.597,4.902,10.708,9.002C24.588,208.361,18.499,203.691,17.876,198.786z M29.779,207.509
			c0.542-2.883-3.342-6.166-4.042-9.179c2.722,0.186,4.908,6.239,7.601,6.57c0.021-3.772-5.983-7.477-7.775-11.09
			c-2.149,1.374-1.907,2.963-1.598,4.557c-1.999-0.182-3.872-1.846-5.75-3.466c0.277-1.462,1.317-2.875,1.392-4.352
			c2.744,2.655,5.908,0.854,9.097-1.139c-0.948-3.944-4.365,0.775-6.307,0.594c-1.451-7.029,13.525-5.7,15.862-2.464
			c1.992,2.761-2.143,4.61-0.715,7.776c-1.672-0.163-3.134-2.709-4.852-2.398c-2.322,2.455-1.96,7.048,0.384,8.63
			c1.514-1.685-0.005-3.653,0.109-5.484c3.512,1.143,4.67,5.862,7.205,8.69C36.682,207.676,33.031,209.689,29.779,207.509z
			 M-14.376,226.334c2.276,2.162,5.874,0.97,7.577,2.648c-2.845,0.469-5.615,0.146-8.214-2.137
			C-14.796,226.671-14.592,226.502-14.376,226.334z M-10.663,264.805c-1.16,1.197-1.946-1.552-3.037-1.064
			c-0.718,2.15,1.732,4.584-0.209,6.638c-1.022-0.302-2.036-0.654-2.969-1.838c-0.424,0.358-0.845,0.703-1.259,1.051
			c-0.602,1.154,1.367,2.614,0.62,3.768c-1.443-0.349-3.684-1.699-4.376-3.507c-0.513-0.069-1.09,0.536-1.65,1.005
			c-0.62,1.053,0.962,2.319,1.833,3.497c-0.655-0.071-1.225-0.961-1.88-0.948c-0.7,0.514-0.24,1.146-1.122,1.654
			c-2.49-2.655-2.603-5.069-5.357-7.734c-1.438,0.852-0.891,1.873-2.01,2.75c-3.139-4.199-4.07-8.202-2.044-11.926
			c0.595-0.005,4.453,9.082,7.946,5.233c0.714-0.788,0.421-1.486,0.25-2.721c0.827,0.095,1.633,0.615,2.507,0.431
			c0.827-0.652,0.763-1.368,0.376-2.121c1.201-0.215,2.17,1.9,3.328,2.259c0.771-0.699,2.005-1.374,1.745-2.186
			c1.373,0.294,4.105,3.051,4.497,0.22C-12.412,260.346-12.482,263.626-10.663,264.805z M-8.852,257.932
			c-1.453,0.851-2.655-1.025-3.888-2.511c-0.908-0.008-2.295,1.627-2.757,2.302c-1.042-0.685-2.063-1.621-3.172-1.667
			c-0.745,0.449-0.866,0.954-1.302,1.431c-1.53-1.756-3.02-4.104-4.719-3.938c-1.077,1.059-1.116,2.229,0.068,3.513
			c-0.789,0.123-1.476-0.969-2.333-0.211c-1.587,1.572-0.438,3.349-1.626,4.946C-37.915,247.645-12.55,246.537-8.852,257.932z
			 M68.542,251.924c-0.323-14.244,0.843-28.34,12.009-41.521c-2.261,11.208-8.437,22.001-8.719,33.351
			c4.5-11.022,6.858-22.25,11.255-33.321C81.741,223.809,76.413,238.502,68.542,251.924z M109.448,240.815
			c-8.473-6.443-15.798-17.977-20.646-26.539c5.572,4.03,10.57,11.401,14.446,17.372c0.284-5.621-8.103-13.685-13.421-20.022
			C100.768,217.177,105.592,231.656,109.448,240.815z M142.251,228.577c-0.986-0.692,0.131-2.802,0.608-4.456
			c1.349-4.814,3.497-9.844,6.639-14.815c4.273-6.87,10.04-13.222,16.43-19.424c-1.016,4.802-8.394,10.701-8.714,16.203
			c4.814-5.564,8.754-12.881,13.868-19.062C169.747,201.629,155.875,215.076,142.251,228.577z M245.46,179.956
			c-9.304-0.269-19.219-0.29-28.982,0.474c-5.484,0.441-11.147,0.072-16.685,0.616c-11.112,1.119-22.301,1.909-33.56,3.572
			c-5.658,0.814-11.114,2.211-16.93,3.34c-11.353,2.223-22.878,3.853-33.93,7.449c-11.054,3.581-22.693,7.113-34.245,10.953
			c-11.288,3.697-22.8,7.25-34.142,9.754c-11.402,2.511-22.319,6.701-34.146,9.782c-11.275,2.937-24.231,7.667-34.641,15.194
			c-2.854,2.091-4.724,4.722-7.196,5.998c-0.566-1.614,2.118-4.064,3.21-5.187c3.656-3.568,9.707-6.635,14.929-9.179
			c9.762-4.778,19.268-7.261,28.888-10.068c5.005-1.435,9.552-3.725,14.34-5.141c6.815-2.014,14.032-2.878,20.992-4.912
			c6.993-2.02,14.066-3.631,21.068-5.701c10.611-3.173,21.145-7.088,31.633-10.204c3.636-1.064,6.957-2.688,10.502-3.73
			c10.331-3.084,21.588-4.696,32.314-6.826c10.811-2.122,21.339-4.185,31.948-5.082c10.432-0.859,21.095-1.674,31.875-2.144
			c5.133-0.229,10.623-0.657,15.906-0.699c7.388-0.01,13.701-0.835,20.454,0.902C248.375,180.172,246.435,179.972,245.46,179.956z
			 M242.683,174.035c-8.997-3.271-18.102-6.69-27.295-9.539c-12.346-3.87-24.632-7.935-36.649-11.764
			c15.577,3.441,32.653,9.231,48.683,15.003c4.326-0.18,8.932,2.742,13.658,4.386c3.662,1.313,7.381,2.169,10.598,4.105
			C248.562,176.732,245.58,175.078,242.683,174.035z M142.798,26.422c1.938,2.322,4.199,4.685,4.649,6.887
			c-1.082,1.062-1.818-1.532-2.897-0.466c-1.019,1.278-0.061,2.714-0.182,4.09c0.584,0.828,1.303-0.021,1.986-0.22
			c0.608,1.592,1.081,3.887-0.82,4.633c-1.291-5.565-9.854-7.466-9.542-13.205C138.405,26.076,140.473,27.524,142.798,26.422z
			 M133.769,26.767c-0.02,1.408,1.493,0.798,1.579,1.901c-0.452,1.341-3.419,2.435-3.282,3.811
			C131.017,31.213,131.405,28.381,133.769,26.767z M134.44,32.311c1.462,1.696-1.641,2.973-1.602,4.551
			C132.479,35.239,132.541,33.691,134.44,32.311z M138.412,35.797c-1.265,1.057-2.533,2.118-3.817,3.179
			C133.378,37.361,136.602,33.186,138.412,35.797z M128.824,38.056c0.289-0.248,0.554-0.472,0.85-0.709
			c0.292,0.342,0.585,0.701,0.87,1.05c-0.268,5.781,1.597,11.764,3.65,17.745C129.305,51.26,129.828,43.354,128.824,38.056z
			 M102.14,26.222c2.77,0.742,2.758,5.119,4.338,8.215c1.226,2.489,3.956,3.751,3.506,6.393
			C105.404,36.525,103.152,30.801,102.14,26.222z M80.496,23.443c-4.816-5.064-10.372-12.084-12.336-16.959
			c-0.357-0.295-0.083-0.521-0.305-0.826c0.204-0.164,0.412-0.344,0.631-0.516c3.514,5.969,10.341,16.104,16.835,21.094
			c1.307,1.006,2.939,1.011,3.487,2.464C85.986,29.259,82.992,26.085,80.496,23.443z M97.968,50.465
			c1.047-0.222,2.002,0.727,3.034,1.054C99.849,52.665,98.891,51.798,97.968,50.465z M98.524,37.82
			c3.568,3.55,6.26,10.08,2.934,12.959c0.175-2.001-2.321-2.203-3.46-2.844c-0.088,1.382-1.264,2.065-2.538,2.097
			c1.409,1.274,2.003,3.347,3.206,3.433c-2.606,4.701-7.814,3.534-11.079,1.337c-0.146-2.623,1.256-5.094-0.445-7.872
			c-1.824,2.05-2.018,4.237-0.604,6.611c-4.924-3.2-6.931-9.513-5.418-13.421c1.818,0.032,3.359,3.188,5.11,3.99
			c1.435-2.211-2.341-3.967-3.743-6.221C86.969,32.443,93.913,33.182,98.524,37.82z M105.793,41.802
			c11.866,7.504,26.013,16.686,37.09,23.897C130.378,59.22,117.875,53.019,105.793,41.802z M130.483,68.907
			c5.194,2.477,10.608,2.392,15.949,3.218c-6.068,0.615-13.601-1.17-20.067-3.024c9.407-3.111,20.051-1.142,29.328,4.281
			C147.373,71.031,139.115,68.067,130.483,68.907z M158.974,78.17c6.169,1.014,13.718,5.487,20.082,11.221
			C172.339,85.963,165.543,83.386,158.974,78.17z M178.069,102.413c3.041-1.165,7.457,1.126,11.104,0.425
			C186.093,104.577,181.662,102.34,178.069,102.413z M167.411,99.08c1.657,1.975,3.525,1.499,5.32,1.661
			c-3.187,0.748-7.87-0.734-11.485-2.605c9.579-2.707,20.348-0.101,30.076,2.54C183.994,101.703,175.342,98.761,167.411,99.08z
			 M204.705,110.306c-2.6-0.751-5.099-2.591-7.554-4.782C199.747,106.286,202.277,107.752,204.705,110.306z M209.715,115.472
			c-3.625,6.185-7.711,12.315-9.137,18.72C199.402,128.468,201.137,119.685,209.715,115.472z M201.377,138.185
			c-0.755-0.28-0.396-2.128-1.083-3.044c5.229-5.841,5.017-12.177,11.612-17.908C214.738,124.796,203.659,131.077,201.377,138.185z
			 M255.312,174.995c-2.835-4.329-2.373-10.932-4.643-15.489c-2.359-4.67-6.613-9.658-10.438-14.255
			c-8.227-9.877-17.501-18.454-25.514-26.783c-0.158-0.199-0.337-0.412-0.531-0.634c0.148-0.126,0.285-0.235,0.436-0.359
			c3.124,1.47,5.271,4.77,7.919,7.385c9.013,8.816,22.624,21.732,29,33.558c1.271,2.394,1.724,5.726,2.362,8.429
			C254.58,169.683,256.506,172.558,255.312,174.995z M339.173,136.728c3.858,4.319,8.14,3.682,12.174,6.009
			c-15.256,9.945-31.416,11.565-46.42,11.388c13.728,4.591,27.774,5.742,41.145,14.15c-28.067,10.319-54.437-16.221-84.134,4.795
			c3.098-4.453,7.255-9.519,11.922-12.795c10.653-7.508,20.966,1.879,30.858,0.469c-6.949-3.964-15.322-3.609-21.848-4.737
			c19.391-11.129,37.953-13.081,57.683-27.961c-18.946,7.009-38.082,15.948-57.169,24.301c8.523-10.427,13.551-21.191,13.919-32.363
			c-2.466,8.437-5.519,16.89-11.327,25.557c-1.833,2.695-3.684,6.285-6.048,8.25c-2.47,2.044-6.367,3.39-9.52,5.771
			c-5.052,3.832-9.045,7.713-11.511,12.441c-3.496-6.292,9.556-14.634,14.836-20.941c14.059-16.906,14.17-36.219,19.354-53.356
			c3.617,6.062,3.775,13.494,5.983,20.087c3.919-6.259,6.588-13.532,14.818-18.777c0.479,3.321-0.885,6.892-1.909,10.187
			c-3.058,9.96-8.126,20.743-16.283,30.397c15.384-7.849,29.935-30.717,45.271-30.869c0.794,5.607-5.975,11.114-12.173,15.517
			c12.091-3.34,24.681-11.955,36.397-10.941C362.52,122.508,349.999,136.451,339.173,136.728z"/>
	</g>
	<g>
		<path fill="#A3462A" d="M197.288,57.028c0.555-0.395,1.402-0.085,1.311,0.708C198.104,58.075,197.689,57.612,197.288,57.028z"/>
	</g>
	<g>
		<path fill="#A3462A" d="M382.095,260.805c0.531,0.283,1.026,0.573,1.567,0.843c-3.227,3.174-4.734,0.296-7.408-0.267
			c-7.537-1.67-17.804,4.71-25.538,11.923c-10.943,10.178-17.877,24.016-20.521,33.91c-0.684-4.932,1.947-11.642,5.553-17.868
			c2.613-4.576,6.186-9.505,10.444-14.071c6.15-6.606,13.673-12.347,21.704-14.47c0.209-0.122,0.383,0.028,0.598-0.144
			c-26.879-2.586-54.699,5.086-82.764,15.478c22.628-14.423,45.893-17.116,68.022-18.981c-10.456-8.906-21.298-13.556-31.854-21.483
			c9.311,3.637,17.36,8.941,26.389,14.917c2.898,1.902,5.624,4.605,8.635,6.083c3.533,1.724,9.47,0.544,13.613,0.833
			C375.013,257.868,378.487,258.978,382.095,260.805z"/>
	</g>
	<g>
		<path fill="#A3462A" d="M246.856,107.149c1.446,2.081,1.136,4.008-0.53,5.812C245.863,110.951,244.419,108.888,246.856,107.149z"
			/>
	</g>
	<g>
		<path fill="#A3462A" d="M196.767,49.957c0.165,0.204,1.561,2.222,1.089,3.015C197.154,51.933,197.051,50.952,196.767,49.957z"/>
	</g>
	<g>
		<path fill="#A3462A" d="M193.342,46.704c0.437,0.295,0.787,1.443,1.259,1.093c-0.072,1.124-1.626,1.248-2.179,0.38
			C193.367,47.753,192.588,47.156,193.342,46.704z"/>
	</g>
	<g>
		<path fill="#A3462A" d="M189.833,42.467c0.395,1.205,1.004,2.436,2.006,3.702c-1.891,0.606-2.182-1.955-3.218-3.42
			C189.069,42.142,189.392,42.823,189.833,42.467z"/>
	</g>
	<g>
		<path fill="#A3462A" d="M185.686,46.98c1.843-1.656,2.781,0.978,2.543,2.205C187.36,49.05,185.8,48.262,185.686,46.98z"/>
	</g>
	<g>
		<path fill="#A3462A" d="M185.27,51.639c2.21,1.437,0.859,3.39,3.272,4.789c-1.741,1.072-3.028-2.496-4.551-3.737
			C184.417,52.342,184.844,51.995,185.27,51.639z"/>
	</g>
	<g>
		<path fill="#A3462A" d="M143.086,29.776c2.36,1.84-1.338,3.125-0.262,4.861C139.95,34.759,141.229,31.078,143.086,29.776z"/>
	</g>
	<g>
		<path fill="#A3462A" d="M73.633-4.16c-0.78-2.17,2.258-4.969,4.476-6.237C78.018-8.226,76.467-5.437,73.633-4.16z"/>
	</g>
	<g>
		<path fill="#A3462A" d="M75.116-1.099c1.475-1.226,2.966-2.467,4.439-3.686c0.924,1.376-0.911,2.543-1.52,3.766
			c0.75,0.443,1.614-0.453,2.366-0.178C80.973,1.842,75.787,1.998,75.116-1.099z"/>
	</g>
	<g>
		<path fill="#A3462A" d="M67.934-12.307c3.672,1.238-0.061,5.001,2.636,7.458C66.399-4.897,67.993-10.16,67.934-12.307z"/>
	</g>
	<g>
		<path fill="#A3462A" d="M72.648-12.665c0.872,1.908,0.127,3.655-1.649,5.325C68.853-9.263,72.076-11.665,72.648-12.665z"/>
	</g>
	<g>
		<path fill="#A3462A" d="M97.328,42.403c2.531-1.796,6.632,4.093,3.391,5.785C97.931,47.286,100.248,43.961,97.328,42.403z"/>
	</g>
	<g>
		<path fill="#A3462A" d="M95.193,38.094c1.368,1.367,0.806,2.544,2.181,3.91c-2.166,0.064-4.098-2.273-6.165-3.101
			c-0.637,0.384,0.486,0.961-0.344,1.336c-0.162-0.207-0.382,0.025-0.602,0.146c-1.448-1.25-0.079-2.786,1.281-3.212
			c0.688,0.439,1.354,1.089,2.015,1.543C93.884,38.805,94.438,37.762,95.193,38.094z"/>
	</g>
	<g>
		<path fill="#A3462A" d="M86.553,36.321c1.725,1.791,2.35,3.467,2.843,5.145c-1.677,1.232-2.771-3.902-4.44-2.752
			C84.197,37.788,85.768,37.085,86.553,36.321z"/>
	</g>
	<g>
		<path fill="#A3462A" d="M90.415,45.276c1.698-0.738,3.33-0.731,4.757,1.426C93.368,48.616,91.89,46.985,90.415,45.276z"/>
	</g>
	<g>
		<path fill="#A3462A" d="M93.621,50.866c1.422,0.252,2.642,2.515,3.965,3.876c-1.666,0.885-4.019-1.397-4.81-3.174
			C93.057,51.33,93.341,51.104,93.621,50.866z"/>
	</g>
	<g>
		<path fill="#A3462A" d="M90.863,50.998c2.074,0.243,2.969,3.912,4.669,4.723c-2.182,1.686-3.872-1.913-5.712-3.849
			C90.167,51.584,90.52,51.289,90.863,50.998z"/>
	</g>
	<g>
		<path fill="#A3462A" d="M78.306,70.766c1.601,0.994,2.565,3.289,2.901,4.77c-2.047,0.788-2.526-2.451-4.348-3.942
			C77.373,70.958,77.819,71.178,78.306,70.766z"/>
	</g>
	<g>
		<path fill="#A3462A" d="M77.325,109.188c-3.069,2.14-7.561,1.337-11.175,2.5c-0.351-0.418-0.812,0.181-1.134-0.493
			C69.266,108.985,73.277,109.226,77.325,109.188z"/>
	</g>
	<g>
		<path fill="#A3462A" d="M9.697,53.336c2.659-1.194,5.17-0.903,7.405,2.436c-1.521,1.814-2.695-0.526-3.989-1.354
			c-0.751,0.393,0.055,0.919-0.697,1.314C11.469,55.453,10.575,54.512,9.697,53.336z"/>
	</g>
	<g>
		<path fill="#A3462A" d="M34.801,188.98c0.9,1.375-1.664,3.02-2.832,3.084c-0.535-0.377-1.098-0.7-1.611-1.523
			C31.922,189.134,33.29,189.828,34.801,188.98z"/>
	</g>
	<g>
		<path fill="#A3462A" d="M-94.087,155.091c1.722,2.694,0.958,5.174-2.433,7.387c-1.444-0.526-2.954-0.458-4.258-2.548
			c-1.89,2.052-3.552,1.775-5.286,2.267c-1.684-1.71-1.092-3.247-1.908-4.859C-103.608,158.044-95.583,162.528-94.087,155.091z"/>
	</g>
	<g>
		<path fill="#A3462A" d="M-104.503,151.579c2.754-2.415,5.244-1.864,7.503,1.268C-99.471,152.04-102.139,153.293-104.503,151.579z"
			/>
	</g>
	<g>
		<path fill="#A3462A" d="M-156.321,117.296c1.982-0.215,4-0.945,5.713,1.701C-152.578,120.225-155.936,119.845-156.321,117.296z"/>
	</g>
	<g>
		<path fill="#A3462A" d="M-158.377,118.277c1.051,1.276,2.124,2.549,3.181,3.819c-1.768,0.692-3.25-1.539-4.886-2.004
			C-160.038,119.444-159.011,118.867-158.377,118.277z"/>
	</g>
</g>
</svg>
